<svg xmlns="http://www.w3.org/2000/svg" xmlns:xlink="http://www.w3.org/1999/xlink" viewBox="0 0 660 480"><defs><style>.cls-1,.cls-10,.cls-11{fill:#fff;}.cls-2{fill:#d3ead3;}.cls-12,.cls-3,.cls-32,.cls-4{fill:none;stroke-linejoin:round;}.cls-3,.cls-4{stroke:#eaddce;stroke-linecap:square;}.cls-3{stroke-width:20px;}.cls-4{stroke-width:11px;}.cls-5{font-size:15.11px;letter-spacing:0.08em;}.cls-5,.cls-7,.cls-8{fill:#666;font-family:NotoSerifTC-Bold-90ms-RKSJ-H, Noto Serif TC;}.cls-6{fill:#8c8c8c;}.cls-10,.cls-11,.cls-7,.cls-8{font-size:11.87px;}.cls-8{letter-spacing:0.08em;}.cls-9{fill:#4c463f;}.cls-10,.cls-11{font-family:NotoSansTC-Medium-90ms-RKSJ-H, Noto Sans TC;}.cls-10{letter-spacing:0.1em;}.cls-11{letter-spacing:0.1em;}.cls-12{stroke:#fff;stroke-width:0.79px;}.cls-12,.cls-32{stroke-linecap:round;}.cls-13{fill:url(#radial-gradient);}.cls-14{fill:url(#radial-gradient-2);}.cls-15{fill:url(#radial-gradient-3);}.cls-16{fill:url(#radial-gradient-4);}.cls-17{fill:url(#radial-gradient-5);}.cls-18{fill:url(#linear-gradient);}.cls-19{fill:url(#linear-gradient-2);}.cls-20{fill:url(#linear-gradient-3);}.cls-21{fill:url(#linear-gradient-4);}.cls-22{fill:url(#linear-gradient-5);}.cls-23{fill:url(#linear-gradient-6);}.cls-24{fill:url(#linear-gradient-7);}.cls-25{fill:url(#linear-gradient-8);}.cls-26{fill:url(#radial-gradient-6);}.cls-27{fill:url(#linear-gradient-9);}.cls-28{fill:#c6902f;}.cls-29{letter-spacing:-0.15em;}.cls-30{letter-spacing:0.1em;}.cls-31{letter-spacing:-0.15em;}.cls-32{stroke:#6d6d6d;stroke-width:1.08px;}.cls-33{fill:#6d6d6d;}</style><radialGradient id="radial-gradient" cx="443.29" cy="13.43" r="0.21" gradientUnits="userSpaceOnUse"><stop offset="0" stop-color="#efe07d"/><stop offset="0.56" stop-color="#dead4e"/><stop offset="0.65" stop-color="#d6a54a"/><stop offset="0.8" stop-color="#bf8e41"/><stop offset="0.98" stop-color="#9a6831"/><stop offset="1" stop-color="#96642f"/></radialGradient><radialGradient id="radial-gradient-2" cx="442.68" cy="13.48" r="0.21" xlink:href="#radial-gradient"/><radialGradient id="radial-gradient-3" cx="443.14" cy="14.02" r="0.21" xlink:href="#radial-gradient"/><radialGradient id="radial-gradient-4" cx="442.19" cy="13.72" r="0.21" xlink:href="#radial-gradient"/><radialGradient id="radial-gradient-5" cx="442.77" cy="14.42" r="0.21" xlink:href="#radial-gradient"/><linearGradient id="linear-gradient" x1="417.16" y1="20.32" x2="431.41" y2="20.32" gradientUnits="userSpaceOnUse"><stop offset="0" stop-color="#85532b"/><stop offset="0.5" stop-color="#dead4e"/><stop offset="1" stop-color="#efe07d"/></linearGradient><linearGradient id="linear-gradient-2" x1="418.29" y1="20.39" x2="430.31" y2="20.39" gradientUnits="userSpaceOnUse"><stop offset="0" stop-color="#efe07d"/><stop offset="0.5" stop-color="#dead4e"/><stop offset="1" stop-color="#85532b"/></linearGradient><linearGradient id="linear-gradient-3" x1="416.52" y1="28.86" x2="420.56" y2="28.86" xlink:href="#linear-gradient-2"/><linearGradient id="linear-gradient-4" x1="415.35" y1="29.11" x2="420.04" y2="29.11" xlink:href="#linear-gradient"/><linearGradient id="linear-gradient-5" x1="410.84" y1="35.17" x2="433.66" y2="35.17" xlink:href="#linear-gradient"/><linearGradient id="linear-gradient-6" x1="412.86" y1="34.42" x2="433.82" y2="34.42" xlink:href="#linear-gradient-2"/><linearGradient id="linear-gradient-7" x1="430.31" y1="15.79" x2="437.01" y2="15.79" xlink:href="#linear-gradient-2"/><linearGradient id="linear-gradient-8" x1="430.31" y1="15.78" x2="437.41" y2="15.78" gradientUnits="userSpaceOnUse"><stop offset="0" stop-color="#efe07c"/><stop offset="0.51" stop-color="#eede7a"/><stop offset="0.7" stop-color="#ecd774"/><stop offset="0.83" stop-color="#e8cc6a"/><stop offset="0.94" stop-color="#e3bb5a"/><stop offset="1" stop-color="#dead4e"/></linearGradient><radialGradient id="radial-gradient-6" cx="439.13" cy="16.01" r="4.65" gradientUnits="userSpaceOnUse"><stop offset="0" stop-color="#efe07d"/><stop offset="0.56" stop-color="#dead4e"/><stop offset="0.67" stop-color="#d7a64b"/><stop offset="0.84" stop-color="#c49341"/><stop offset="1" stop-color="#ad7b36"/></radialGradient><linearGradient id="linear-gradient-9" x1="438.7" y1="15.08" x2="442.8" y2="15.08" gradientUnits="userSpaceOnUse"><stop offset="0" stop-color="#85532b"/><stop offset="0.37" stop-color="#dead4e"/><stop offset="1" stop-color="#efe07d"/></linearGradient></defs><g id="bg"><rect class="cls-1" width="660" height="480"/></g><g id="公園色塊"><path class="cls-2" d="M350.29,231.83,212.68,72.48a2.09,2.09,0,0,0-3-.23c-8.72,7.45-50.64,43.56-56.23,53.64-13.58,24.5-14,98.65-12.52,103.87,1.44,5.06,176.92,5.5,207.72,5.54A2.1,2.1,0,0,0,350.29,231.83Z"/></g><g id="路"><path class="cls-3" d="M84.45,403.63s130,.8,217.79-.1c91.9-.94,250-1.45,273.22-1.45"/><path class="cls-3" d="M306.31,458s-5.19-94.63,9.8-149.77c10.71-39.37,71.18-134.75,85.66-149.23,67.88-67.88,95.1-92.67,124.12-114.49"/><path class="cls-4" d="M128.09,308.22s261.24,4.45,344.63,11"/><path class="cls-4" d="M119.38,229.35l230.35,7.9a3.88,3.88,0,0,0,3-6.42l-148.73-171"/><path class="cls-4" d="M397.54,155.59S329.66,79.87,317.89,68.1"/><path class="cls-4" d="M497.75,240.06s-73.65-74.7-85.16-83.44"/><path class="cls-4" d="M528.63,173.84s-44.86-46-58.77-59.67"/><path class="cls-4" d="M448.73,105.42s-55.2-61.07-64.61-70.91"/><path class="cls-4" d="M113.08,403.63s4.36-77.9,16.55-115.73S146.19,235,146.19,235"/></g><g id="文字_icon_logo" data-name="文字．icon．logo"><text class="cls-5" transform="translate(163.73 410.11)">信義路四段</text><path class="cls-6" d="M169.36,362.17c-5.53,0-10,.62-10,5v11.89a4.38,4.38,0,0,0,4.38,4.38l-1.88,1.88v.62h15v-.62L175,383.44a4.39,4.39,0,0,0,4.38-4.38V367.17C179.37,362.79,174.89,362.17,169.36,362.17Zm-5.63,18.77a1.88,1.88,0,1,1,1.87-1.88A1.88,1.88,0,0,1,163.73,380.94Zm4.38-7.51h-6.26v-6.26h6.26Zm6.88,7.51a1.88,1.88,0,1,1,1.87-1.88A1.88,1.88,0,0,1,175,380.94Zm1.87-7.51h-6.25v-6.26h6.25Z"/><text class="cls-7" transform="translate(342.74 259.86) rotate(-61.5)">信</text><text class="cls-7" transform="matrix(0.5, -0.87, 0.87, 0.5, 348.84, 248.66)">義</text><text class="cls-7" transform="matrix(0.52, -0.86, 0.86, 0.52, 355.22, 237.57)">路</text><text class="cls-7" transform="matrix(0.53, -0.85, 0.85, 0.53, 361.83, 226.64)">四</text><text class="cls-7" transform="translate(368.68 215.84) rotate(-56.54)">段</text><text class="cls-7" transform="matrix(0.56, -0.83, 0.83, 0.56, 375.75, 205.19)">2</text><text class="cls-7" transform="translate(380.19 198.7) rotate(-54.95)">6</text><text class="cls-7" transform="translate(384.7 192.28) rotate(-54.25)">5</text><text class="cls-7" transform="matrix(0.6, -0.8, 0.8, 0.6, 389.29, 185.89)">巷</text><text class="cls-8" transform="matrix(1, 0.04, -0.04, 1, 176.89, 235.74)">安和路一段135巷</text><text class="cls-8" transform="translate(236.51 102.57) rotate(50.53)">信義路四段265巷12弄</text><text class="cls-8" transform="translate(192.26 181.32)">敦安公園</text><rect class="cls-9" x="264.12" y="276.44" width="56.13" height="23.83" rx="1"/><text class="cls-10" transform="translate(266.63 291.98)">怡客咖啡</text><rect class="cls-9" x="451.7" y="123.29" width="59.74" height="23.35" rx="1"/><text class="cls-10" transform="translate(456.2 139.09)">東門鴨莊</text><rect class="cls-9" x="441" y="69.33" width="50.81" height="19.26" rx="1"/><text class="cls-11" transform="translate(444.53 82.94) scale(1.13 1)">85度C</text><rect class="cls-9" x="390.28" y="185.08" width="72.39" height="24.02" rx="1"/><text class="cls-10" transform="translate(394.95 201.41)">彼得好咖啡</text><rect class="cls-9" x="84.45" y="334.72" width="149.8" height="24.02" rx="1"/><text class="cls-10" transform="translate(87.93 351.05)">捷運-信義安和站5號出口</text><rect class="cls-9" x="118.09" y="425.02" width="126.12" height="24.02" rx="1"/><text class="cls-10" transform="translate(120.25 441.35)">公車-信義通化街口站</text><rect class="cls-9" x="268.23" y="314.17" width="28.24" height="22.9" rx="1"/><text class="cls-10" transform="translate(269.67 330.21)">全家</text><rect class="cls-9" x="295.92" y="234.99" width="32.23" height="22.9" rx="1"/><text class="cls-10" transform="translate(300.06 251.04)">里仁</text><rect class="cls-9" x="334.08" y="172.9" width="33.46" height="19.97" rx="1"/><text class="cls-10" transform="translate(337.13 187.09)">7-11</text><path class="cls-12" d="M443.1,13.35a.2.2,0,0,0,.11.27.2.2,0,0,0,.27-.1.21.21,0,0,0-.11-.28l-.09,0a.21.21,0,0,0-.18.13"/><path class="cls-12" d="M442.49,13.4a.2.2,0,0,0,.1.27.21.21,0,1,0,.16-.38l-.08,0a.19.19,0,0,0-.18.13"/><path class="cls-12" d="M443,13.94a.21.21,0,0,0,.11.27.2.2,0,0,0,.27-.11.21.21,0,0,0-.11-.27l-.07,0a.21.21,0,0,0-.2.13"/><path class="cls-12" d="M442,13.64a.2.2,0,0,0,.11.27.2.2,0,0,0,.27-.11.2.2,0,0,0-.11-.27l-.08,0a.22.22,0,0,0-.19.13"/><path class="cls-12" d="M442.58,14.34a.21.21,0,0,0,.11.27.21.21,0,1,0,.16-.38l-.08,0a.21.21,0,0,0-.19.13"/><path class="cls-12" d="M417.23,20.26c-.43,3.32,1.1,6.13,3.84,7l.09,0,.58.15a11.63,11.63,0,0,0,4,.14c-6.89.23-8.1-5.58-7.16-8.65s4.21-6,7-5.82,4.66,2.91,4.7,5.73a8.3,8.3,0,0,1-2.93,6.41,6.4,6.4,0,0,1-3.14,1.7l.64.19a10.46,10.46,0,0,0,3.84-1.91,7.26,7.26,0,0,0,2.59-5c.66-4.06-2-7.3-5.84-7.36h-.13a8.29,8.29,0,0,0-8.11,7.36"/><path class="cls-12" d="M418.57,19c-.94,3.07.27,8.88,7.16,8.65h0a7.9,7.9,0,0,1-3.14-.91c-1.6-.85-2.87-3.33-2.33-6.6.6-3.72,3-6.73,5.32-6.73s3.74,3,3.14,6.73c-.56,3.46-2.73,6.56-5.34,6.63l.85.25a6.4,6.4,0,0,0,3.14-1.7,8.3,8.3,0,0,0,2.93-6.41c0-2.82-1.87-5.51-4.7-5.73h-.3c-2.76,0-5.83,2.84-6.74,5.83"/><path class="cls-12" d="M416.72,30.71l1.16-.73s-.87-2.15,2.68-2.66L420,27c-.53.06-4.45.61-3.32,3.69"/><path class="cls-12" d="M415.39,31.56l1.33-.85c-1.13-3.08,2.79-3.63,3.32-3.69l-.63-.35s-4.51.72-4,4.89"/><path class="cls-12" d="M428.43,28.12c-4.4,2.06-6.27-.54-12.19,3.44,0,0-6.56,3.56-5.22,10.71,1.38,7.35,13.83,7.53,18.31.5,4.6-7.23-1.06-10.59-1.06-10.59a4.07,4.07,0,0,1-1.36.3,16,16,0,0,0-1.93.16c1.64.66,5.89,3.09,3.43,8.23A9.78,9.78,0,0,1,419,46.45c-1.62,0-7.43-2-5.85-8s7.86-7.25,10.11-7.65,3.91-.12,6.92-2.06,3.44-5.68,3.5-6.33c-.07.35-.91,3.68-5.23,5.7"/><path class="cls-12" d="M433.66,22.42c-.06.65-.56,4.43-3.5,6.33s-4.66,1.66-6.92,2.06-8.54,1.66-10.11,7.65,4.23,8,5.85,8a9.78,9.78,0,0,0,9.43-5.58c2.46-5.14-1.79-7.57-3.43-8.23a13.29,13.29,0,0,0-5.39,2s4.54-2,7,1.6-1.68,9.21-6.94,8.65-4.75-4.54-4.22-6.19a9.56,9.56,0,0,1,5.75-5.42A20.4,20.4,0,0,1,427.22,32a6.38,6.38,0,0,0,4.29-2.23,9,9,0,0,0,2.16-7.34v0"/><path class="cls-12" d="M433.09,14.47a7.78,7.78,0,0,0-2.78,1.58l.4,0a4.77,4.77,0,0,1,2-1c1.37,0,2.31.85,2.27,1.68,0,1,2,.27,2,.27.33-1.9-1-2.82-2.56-2.82a4,4,0,0,0-1.31.22"/><path class="cls-12" d="M436.82,16.05l-2,1c0,.68.43.68.43.68.48.09-.18-.42.34-.66.76-.33,2.76-.15,1.4-1.69a1.43,1.43,0,0,1-.13.66M436,14.47a9.62,9.62,0,0,1,1,.92c-.05-.47-.46-.76-1-.92h0m-3.4-.43a7.52,7.52,0,0,0-2.1,1.38l-.15.63a9.72,9.72,0,0,1,2.78-1.58,5.73,5.73,0,0,1,2.87,0,3.37,3.37,0,0,0-2.1-.66,3.74,3.74,0,0,0-1.3.23"/><path class="cls-12" d="M438.38,11.71a2.46,2.46,0,0,0-.21,1.17c0,.22,0,.44,0,.66l-.06-.26c-.05-.26-.08-.51-.15-.76a.68.68,0,0,0-.91-.59.83.83,0,0,1-.35,0,1.09,1.09,0,0,0-1.23.63.68.68,0,0,1-.42.44.8.8,0,0,0-.41,1.07,3.14,3.14,0,0,0,.34.55,1.36,1.36,0,0,0,.78.44l.54.15a3.28,3.28,0,0,1,.51.15l-.34-.06a2.23,2.23,0,0,0-1.42.15.84.84,0,0,0-.45,1.19.31.31,0,0,1,0,.23.8.8,0,0,0,.45,1.05.18.18,0,0,1,.13.17,1.2,1.2,0,0,0,.86,1,.32.32,0,0,1,.14.14,1.11,1.11,0,0,0,1.74.3,1.37,1.37,0,0,0,.26-.37c.12-.22.21-.45.32-.69.06.39.1.75.19,1.1a4.3,4.3,0,0,0,.31.74.66.66,0,0,0,.85.34,1.13,1.13,0,0,0,.6-.37.7.7,0,0,0,.78.22.75.75,0,0,0,.5-.45,1.85,1.85,0,0,1,.24-.33,1,1,0,0,0-.21-1.34,9.36,9.36,0,0,1-1.39-1.2s0,0,0-.05a1.18,1.18,0,0,1,.22.14l.8.71a1.83,1.83,0,0,0,1,.44.69.69,0,0,0,.82-.6s0-.08.05-.09a.85.85,0,0,0,.3-1.24,1.14,1.14,0,0,1-.14-.54.83.83,0,0,0-.8-.86,3.69,3.69,0,0,0-1.63.39,1.19,1.19,0,0,0-.21.15l.51.14v0h-.52a.45.45,0,0,0-.11,0v.06l.83.37s0,0,0,0c-.29-.06-.58-.13-.87-.18a2.58,2.58,0,0,0-.39,0s-.07,0-.13.05l.76.49v0l-1.18-.22,0,0,.05.12a3,3,0,0,1,.44.94.37.37,0,0,1,0,.18,2.69,2.69,0,0,0-.84-1.08,1.69,1.69,0,0,1,0,.92,1.26,1.26,0,0,0-.2-.62c-.12-.19-.25-.37-.38-.56l-.82,1,0,0c.1-.31.19-.61.3-.94a2.07,2.07,0,0,0-1,.3,2.23,2.23,0,0,1,1-.59,2.87,2.87,0,0,0-1.16-.13,3.78,3.78,0,0,1,1.35-.19,1.89,1.89,0,0,0-.64-1.3l0,0,.57.52h0L438,13.77a4.63,4.63,0,0,1,.85,1.51,3.59,3.59,0,0,0,.26-1h0l0,.78a1.88,1.88,0,0,0,.36-1.21,2.14,2.14,0,0,1,0,1.09,1.2,1.2,0,0,0,.36-.49c.08-.18.14-.38.22-.56a2.26,2.26,0,0,1-.31,1.3.35.35,0,0,0,.33-.05,6.53,6.53,0,0,0,1.4-1.22,1.26,1.26,0,0,0,.22-1.18.93.93,0,0,0-.23-.34c-.19-.22-.4-.41-.58-.64a.85.85,0,0,0-.87-.35,2.14,2.14,0,0,1-.87-.09l-.2,0a.58.58,0,0,0-.55.39"/><path class="cls-12" d="M441.27,14.79a8.22,8.22,0,0,1-2,.77,2.48,2.48,0,0,1-.27,0,.38.38,0,0,0-.23.61.32.32,0,0,0,.36.09A8,8,0,0,0,441.47,15a8.57,8.57,0,0,0,1.29-1.12l0-.05a11,11,0,0,1-1.53.94"/><path class="cls-13" d="M443.1,13.35a.2.2,0,0,0,.11.27.2.2,0,0,0,.27-.1.21.21,0,0,0-.11-.28l-.09,0a.21.21,0,0,0-.18.13"/><path class="cls-14" d="M442.49,13.4a.2.2,0,0,0,.1.27.21.21,0,1,0,.16-.38l-.08,0a.19.19,0,0,0-.18.13"/><path class="cls-15" d="M443,13.94a.21.21,0,0,0,.11.27.2.2,0,0,0,.27-.11.21.21,0,0,0-.11-.27l-.07,0a.21.21,0,0,0-.2.13"/><path class="cls-16" d="M442,13.64a.2.2,0,0,0,.11.27.2.2,0,0,0,.27-.11.2.2,0,0,0-.11-.27l-.08,0a.22.22,0,0,0-.19.13"/><path class="cls-17" d="M442.58,14.34a.21.21,0,0,0,.11.27.21.21,0,1,0,.16-.38l-.08,0a.21.21,0,0,0-.19.13"/><path class="cls-18" d="M417.23,20.26c-.43,3.32,1.1,6.13,3.84,7l.09,0,.58.15a11.63,11.63,0,0,0,4,.14c-6.89.23-8.1-5.58-7.16-8.65s4.21-6,7-5.82,4.66,2.91,4.7,5.73a8.3,8.3,0,0,1-2.93,6.41,6.4,6.4,0,0,1-3.14,1.7l.64.19a10.46,10.46,0,0,0,3.84-1.91,7.26,7.26,0,0,0,2.59-5c.66-4.06-2-7.3-5.84-7.36h-.13a8.29,8.29,0,0,0-8.11,7.36"/><path class="cls-19" d="M418.57,19c-.94,3.07.27,8.88,7.16,8.65h0a7.9,7.9,0,0,1-3.14-.91c-1.6-.85-2.87-3.33-2.33-6.6.6-3.72,3-6.73,5.32-6.73s3.74,3,3.14,6.73c-.56,3.46-2.73,6.56-5.34,6.63l.85.25a6.4,6.4,0,0,0,3.14-1.7,8.3,8.3,0,0,0,2.93-6.41c0-2.82-1.87-5.51-4.7-5.73h-.3c-2.76,0-5.83,2.84-6.74,5.83"/><path class="cls-20" d="M416.72,30.71l1.16-.73s-.87-2.15,2.68-2.66L420,27c-.53.06-4.45.61-3.32,3.69"/><path class="cls-21" d="M415.39,31.56l1.33-.85c-1.13-3.08,2.79-3.63,3.32-3.69l-.63-.35s-4.51.72-4,4.89"/><path class="cls-22" d="M428.43,28.12c-4.4,2.06-6.27-.54-12.19,3.44,0,0-6.56,3.56-5.22,10.71,1.38,7.35,13.83,7.53,18.31.5,4.6-7.23-1.06-10.59-1.06-10.59a4.07,4.07,0,0,1-1.36.3,16,16,0,0,0-1.93.16c1.64.66,5.89,3.09,3.43,8.23A9.78,9.78,0,0,1,419,46.45c-1.62,0-7.43-2-5.85-8s7.86-7.25,10.11-7.65,3.91-.12,6.92-2.06,3.44-5.68,3.5-6.33c-.07.35-.91,3.68-5.23,5.7"/><path class="cls-23" d="M433.66,22.42c-.06.65-.56,4.43-3.5,6.33s-4.66,1.66-6.92,2.06-8.54,1.66-10.11,7.65,4.23,8,5.85,8a9.78,9.78,0,0,0,9.43-5.58c2.46-5.14-1.79-7.57-3.43-8.23a13.29,13.29,0,0,0-5.39,2s4.54-2,7,1.6-1.68,9.21-6.94,8.65-4.75-4.54-4.22-6.19a9.56,9.56,0,0,1,5.75-5.42A20.4,20.4,0,0,1,427.22,32a6.38,6.38,0,0,0,4.29-2.23,9,9,0,0,0,2.16-7.34v0"/><path class="cls-24" d="M433.09,14.47a7.78,7.78,0,0,0-2.78,1.58l.4,0a4.77,4.77,0,0,1,2-1c1.37,0,2.31.85,2.27,1.68,0,1,2,.27,2,.27.33-1.9-1-2.82-2.56-2.82a4,4,0,0,0-1.31.22"/><path class="cls-25" d="M436.82,16.05l-2,1c0,.68.43.68.43.68.48.09-.18-.42.34-.66.76-.33,2.76-.15,1.4-1.69a1.43,1.43,0,0,1-.13.66M436,14.47a9.62,9.62,0,0,1,1,.92c-.05-.47-.46-.76-1-.92h0m-3.4-.43a7.52,7.52,0,0,0-2.1,1.38l-.15.63a9.72,9.72,0,0,1,2.78-1.58,5.73,5.73,0,0,1,2.87,0,3.37,3.37,0,0,0-2.1-.66,3.74,3.74,0,0,0-1.3.23"/><path class="cls-26" d="M438.38,11.71a2.46,2.46,0,0,0-.21,1.17c0,.22,0,.44,0,.66l-.06-.26c-.05-.26-.08-.51-.15-.76a.68.68,0,0,0-.91-.59.83.83,0,0,1-.35,0,1.09,1.09,0,0,0-1.23.63.68.68,0,0,1-.42.44.8.8,0,0,0-.41,1.07,3.14,3.14,0,0,0,.34.55,1.36,1.36,0,0,0,.78.44l.54.15a3.28,3.28,0,0,1,.51.15l-.34-.06a2.23,2.23,0,0,0-1.42.15.84.84,0,0,0-.45,1.19.31.31,0,0,1,0,.23.8.8,0,0,0,.45,1.05.18.18,0,0,1,.13.17,1.2,1.2,0,0,0,.86,1,.32.32,0,0,1,.14.14,1.11,1.11,0,0,0,1.74.3,1.37,1.37,0,0,0,.26-.37c.12-.22.21-.45.32-.69.06.39.1.75.19,1.1a4.3,4.3,0,0,0,.31.74.66.66,0,0,0,.85.34,1.13,1.13,0,0,0,.6-.37.7.7,0,0,0,.78.22.75.75,0,0,0,.5-.45,1.85,1.85,0,0,1,.24-.33,1,1,0,0,0-.21-1.34,9.36,9.36,0,0,1-1.39-1.2s0,0,0-.05a1.18,1.18,0,0,1,.22.14l.8.71a1.83,1.83,0,0,0,1,.44.69.69,0,0,0,.82-.6s0-.08.05-.09a.85.85,0,0,0,.3-1.24,1.14,1.14,0,0,1-.14-.54.83.83,0,0,0-.8-.86,3.69,3.69,0,0,0-1.63.39,1.19,1.19,0,0,0-.21.15l.51.14v0h-.52a.45.45,0,0,0-.11,0v.06l.83.37s0,0,0,0c-.29-.06-.58-.13-.87-.18a2.58,2.58,0,0,0-.39,0s-.07,0-.13.05l.76.49v0l-1.18-.22,0,0,.05.12a3,3,0,0,1,.44.94.37.37,0,0,1,0,.18,2.69,2.69,0,0,0-.84-1.08,1.69,1.69,0,0,1,0,.92,1.26,1.26,0,0,0-.2-.62c-.12-.19-.25-.37-.38-.56l-.82,1,0,0c.1-.31.19-.61.3-.94a2.07,2.07,0,0,0-1,.3,2.23,2.23,0,0,1,1-.59,2.87,2.87,0,0,0-1.16-.13,3.78,3.78,0,0,1,1.35-.19,1.89,1.89,0,0,0-.64-1.3l0,0,.57.52h0L438,13.77a4.63,4.63,0,0,1,.85,1.51,3.59,3.59,0,0,0,.26-1h0l0,.78a1.88,1.88,0,0,0,.36-1.21,2.14,2.14,0,0,1,0,1.09,1.2,1.2,0,0,0,.36-.49c.08-.18.14-.38.22-.56a2.26,2.26,0,0,1-.31,1.3.35.35,0,0,0,.33-.05,6.53,6.53,0,0,0,1.4-1.22,1.26,1.26,0,0,0,.22-1.18.93.93,0,0,0-.23-.34c-.19-.22-.4-.41-.58-.64a.85.85,0,0,0-.87-.35,2.14,2.14,0,0,1-.87-.09l-.2,0a.58.58,0,0,0-.55.39"/><path class="cls-27" d="M441.27,14.79a8.22,8.22,0,0,1-2,.77,2.48,2.48,0,0,1-.27,0,.38.38,0,0,0-.23.61.32.32,0,0,0,.36.09A8,8,0,0,0,441.47,15a8.57,8.57,0,0,0,1.29-1.12l0-.05a11,11,0,0,1-1.53.94"/><path class="cls-28" d="M385.19,55.15a.44.44,0,0,1-.07-.16l0-.15h-.54v1.81h.54l0-.16a.44.44,0,0,1,.07-.16.58.58,0,0,1,.23,0h1.64v1.07A3.48,3.48,0,0,1,386,58a4.82,4.82,0,0,1-1.48.23,3.78,3.78,0,0,1-2.4-.74,2.56,2.56,0,0,1-1-2.14,2.59,2.59,0,0,1,1-2.18,3.64,3.64,0,0,1,2.29-.72,5,5,0,0,1,2.32.58,1.93,1.93,0,0,1,.49.31l-.06.12-.11.17.48.32,1.1-1.67-.47-.3-.12.13-.13.15a1.76,1.76,0,0,1-.2-.1,7.79,7.79,0,0,0-1.62-.66,6.53,6.53,0,0,0-3.53.09,4.28,4.28,0,0,0-2,1.38,3.71,3.71,0,0,0-.81,2.36,4,4,0,0,0,.41,1.75,4.15,4.15,0,0,0,1,1.25,5,5,0,0,0,3.29,1,6.17,6.17,0,0,0,2.92-.68,7.62,7.62,0,0,0,1.25-.88l.07-.06V57.3l-.15,0c-.15,0-.18-.07-.18-.07a.39.39,0,0,1,0-.2V56a.36.36,0,0,1,0-.19s0,0,.18-.08l.15,0v-.53h-3.26a.45.45,0,0,1-.23,0"/><path class="cls-28" d="M397.23,53.47a4.46,4.46,0,0,0-2.88-.89h0a5.14,5.14,0,0,0-1.75.28,3.43,3.43,0,0,0-1.71,1.25,3.2,3.2,0,0,0,.61,4.33,4.42,4.42,0,0,0,2.86.89,4,4,0,0,0,3.47-1.53,3,3,0,0,0,.59-1.8,3.11,3.11,0,0,0-1.19-2.53m-2.87,4.83a3,3,0,0,1-2.11-.76,2.19,2.19,0,0,1,0-3.17,2.94,2.94,0,0,1,2.1-.76,3.09,3.09,0,0,1,2.13.76,2.1,2.1,0,0,1,.68,1.62,2.06,2.06,0,0,1-.68,1.55,3,3,0,0,1-2.12.76"/><path class="cls-28" d="M405.69,58c0,.14-.07.17-.08.17a.49.49,0,0,1-.22,0h-3.7V53.52a.36.36,0,0,1,0-.19.59.59,0,0,1,.19-.08l.15,0v-.51h-1.95v.51l.15,0c.15,0,.18.08.18.08a.36.36,0,0,1,0,.19v4.86a.39.39,0,0,1,0,.2s0,0-.18.08l-.15,0v.51h5.28a.49.49,0,0,1,.22,0,.6.6,0,0,1,.08.17l0,.15h.51V57.86h-.51Z"/><path class="cls-28" d="M413,53a5.14,5.14,0,0,0-2-.3h-3.43v.51l.15,0c.15,0,.18.08.18.08a.36.36,0,0,1,0,.19v4.86a.39.39,0,0,1,0,.2s0,0-.18.08l-.15,0v.51H411a5.34,5.34,0,0,0,2-.3,2.72,2.72,0,0,0,1.22-1.07,3.46,3.46,0,0,0,.54-1.88,3.5,3.5,0,0,0-.41-1.64A2.88,2.88,0,0,0,413,53m-3.86.7h1.8a4.2,4.2,0,0,1,1.26.14,1.55,1.55,0,0,1,.73.46,2.34,2.34,0,0,1,.55,1.64,2.83,2.83,0,0,1-.2,1.07,1.77,1.77,0,0,1-.77.92,3.56,3.56,0,0,1-1.57.26h-1.8Z"/><path class="cls-28" d="M422,58a.44.44,0,0,1-.07.16.52.52,0,0,1-.23,0H418V56.35h2.29c.16,0,.21,0,.22,0s0,0,.07.16l0,.15h.52V55h-.52l0,.15c0,.13-.07.16-.07.16a.43.43,0,0,1-.22,0H418V53.71h3.71a.49.49,0,0,1,.22,0s0,0,.07.16l0,.15h.52V52.36H422l-.05.15a.38.38,0,0,1-.07.17.49.49,0,0,1-.22,0h-5.3v.51l.15,0c.15,0,.18.08.18.08a.36.36,0,0,1,0,.19v4.86a.39.39,0,0,1,0,.2s0,0-.18.08l-.15,0v.51h5.34a.49.49,0,0,1,.22,0,.46.46,0,0,1,.07.17l0,.15h.52V57.86h-.53Z"/><path class="cls-28" d="M429.65,53.22l.15,0a.46.46,0,0,1,.19.08.36.36,0,0,1,0,.19v3.72l-3.43-3.65c-.15-.16-.16-.24-.16-.25s.05-.06.16-.09l.14,0v-.5h-2.48v.51l.15,0c.15,0,.18.08.18.08a.36.36,0,0,1,0,.19v4.86a.39.39,0,0,1,0,.2s0,0-.18.08l-.15,0v.51h1.81v-.51l-.15,0c-.15,0-.18-.08-.18-.08s0,0,0-.2v-4l3.77,4a1.73,1.73,0,0,1,.2.25l-.13,0-.15,0v.51h2.08v-.51l-.16,0c-.15,0-.18-.08-.18-.08a.39.39,0,0,1,0-.2V53.52a.36.36,0,0,1,0-.19s0,0,.18-.08l.16,0v-.51h-1.82Z"/><path class="cls-28" d="M444,55a3,3,0,0,0-1-.29c-.39-.06-1-.09-1.9-.12-.62,0-1.08,0-1.35-.08a2.43,2.43,0,0,1-.67-.17.83.83,0,0,1-.37-.29.68.68,0,0,1-.13-.4.8.8,0,0,1,.18-.49,1.38,1.38,0,0,1,.52-.42,4,4,0,0,1,1.75-.35,5.72,5.72,0,0,1,2.35.49,1,1,0,0,1,.3.18l-.08.22-.07.17.49.25,1-1.76-.5-.24-.11.13a.48.48,0,0,1-.13.13l-.14,0a8.54,8.54,0,0,0-1.55-.52,7.13,7.13,0,0,0-1.5-.15,6.52,6.52,0,0,0-1.82.24,3.59,3.59,0,0,0-1.34.69,2,2,0,0,0-.68,1.51,1.92,1.92,0,0,0,.26,1,1.88,1.88,0,0,0,.72.68,4.06,4.06,0,0,0,1,.36,10.92,10.92,0,0,0,1.57.14l1.66.07a2.29,2.29,0,0,1,.52.11c.64.21.71.56.71.81a1,1,0,0,1-.42.8,3.24,3.24,0,0,1-2.06.56A5.18,5.18,0,0,1,440,58a5.53,5.53,0,0,1-1.22-.45,2.07,2.07,0,0,1-.61-.38,1.45,1.45,0,0,1,.08-.18l.09-.18-.5-.27-1.07,1.7.47.29.11-.12.14-.13.23.1a10,10,0,0,0,1.8.72,7.16,7.16,0,0,0,1.77.19,4.69,4.69,0,0,0,2.81-.75,2.17,2.17,0,0,0,1-1.82A1.88,1.88,0,0,0,444,55"/><path class="cls-28" d="M453.5,51.81a2.54,2.54,0,0,0-.92-.34,8.24,8.24,0,0,0-1.38-.09h-4.3v.53l.15,0a.49.49,0,0,1,.19.08.27.27,0,0,1,0,.11v6.29a.33.33,0,0,1,0,.12.79.79,0,0,1-.19.08l-.15,0v.53h2v-.53l-.15,0a.79.79,0,0,1-.19-.08.33.33,0,0,1,0-.12V55.86h2.63a6.38,6.38,0,0,0,1.71-.17,2.27,2.27,0,0,0,1-.64,2.2,2.2,0,0,0,.24-2.55,1.85,1.85,0,0,0-.7-.69m-2.21,2.94h-2.72V52.49h2.72a7,7,0,0,1,.93,0,1.47,1.47,0,0,1,.5.17,1.12,1.12,0,0,1,0,1.84,1.47,1.47,0,0,1-.5.17,7.11,7.11,0,0,1-.93,0"/><path class="cls-28" d="M463.53,58.63c-.25-.06-.31-.12-.31-.13a4,4,0,0,1-.37-.68l-2.74-5.66A1.28,1.28,0,0,1,460,52l.13,0,.14-.05v-.52H458v.53l.15,0a.4.4,0,0,1,.12,0l-.07.17L455.35,58a2,2,0,0,1-.28.49.39.39,0,0,1-.25.1l-.17,0v.55h2.15v-.55l-.17,0a.49.49,0,0,1-.16,0,.44.44,0,0,1,.07-.17l.63-1.29h3.91l.58,1.22c.09.18.1.24.11.24h0a.41.41,0,0,1-.16,0l-.18,0v.55h2.26v-.54Zm-3-2.62h-2.87l1.43-3Z"/><path class="cls-6" d="M267.8,411.83a8.41,8.41,0,0,0-6.94,3.66l0,0c-.48,0-1,0-1.49,0-5.31,0-9.61.6-9.61,4.81v12a3.56,3.56,0,0,0,1.21,2.66v2.14a1.19,1.19,0,0,0,1.2,1.2h1.2a1.2,1.2,0,0,0,1.2-1.2v-1.2h9.61v1.2a1.2,1.2,0,0,0,1.2,1.2h1.2a1.2,1.2,0,0,0,1.2-1.2v-2.14a3.59,3.59,0,0,0,1.2-2.66v-3.7a8.41,8.41,0,0,0-1.2-16.72ZM254,433.45a1.8,1.8,0,1,1,1.8-1.8A1.8,1.8,0,0,1,254,433.45Zm-1.8-7.21v-6h7.2a8.37,8.37,0,0,0,2.54,6Zm12.61,7.21a1.8,1.8,0,1,1,1.8-1.8A1.8,1.8,0,0,1,264.8,433.45Zm3-7.21a6,6,0,1,1,6-6A6,6,0,0,1,267.8,426.24Zm-1.2-10.81H269v6h-2.4Zm0,7.21H269V425h-2.4Z"/><rect class="cls-9" x="345.86" y="354.67" width="122.18" height="97.92" rx="1"/><text class="cls-10" transform="translate(353.37 375.63)">公車可搭<tspan class="cls-29" x="52.24" y="0">乘：</tspan><tspan x="0" y="16.19">信義幹</tspan><tspan class="cls-29" x="39.18" y="16.19">線、</tspan><tspan x="0" y="32.38">150</tspan><tspan class="cls-29" x="23.86" y="32.38">3、</tspan><tspan x="38.94" y="32.38">2</tspan><tspan class="cls-29" x="46.89" y="32.38">0、</tspan><tspan class="cls-30" x="61.97" y="32.38">2</tspan><tspan class="cls-31" x="69.93" y="32.38">2、</tspan><tspan x="0" y="48.57">22</tspan><tspan class="cls-29" x="15.91" y="48.57">6、</tspan><tspan x="30.99" y="48.57">29</tspan><tspan class="cls-29" x="46.89" y="48.57">2、</tspan><tspan class="cls-30" x="61.97" y="48.57">292</tspan><tspan class="cls-31" x="85.83" y="48.57">副、</tspan><tspan x="0" y="64.76">3</tspan><tspan class="cls-29" x="7.95" y="64.76">3、</tspan><tspan x="23.03" y="64.76">3</tspan><tspan class="cls-29" x="30.99" y="64.76">7、</tspan><tspan x="46.06" y="64.76">8</tspan><tspan class="cls-29" x="54.02" y="64.76">8、</tspan><tspan x="69.1" y="64.76">88</tspan><tspan class="cls-31" x="85" y="64.76">區。</tspan></text><path class="cls-32" d="M241.49,448.11s54.26,21.85,92.12.58"/><polygon class="cls-33" points="332.56 454.25 331.53 453.91 333.23 448.87 328.07 447.54 328.34 446.5 334.62 448.11 332.56 454.25"/></g></svg>