<svg xmlns="http://www.w3.org/2000/svg" xmlns:xlink="http://www.w3.org/1999/xlink" width="30" height="30" viewBox="0 0 30 30">
  <defs>
    <clipPath id="clip-line-1">
      <rect width="30" height="30"/>
    </clipPath>
  </defs>
  <g id="line-1" clip-path="url(#clip-line-1)">
    <path id="line-brands" d="M18.221,43.531v4.761a.212.212,0,0,1-.214.214h-.763a.221.221,0,0,1-.174-.087l-2.183-2.946V48.3a.212.212,0,0,1-.214.214h-.763a.212.212,0,0,1-.214-.214V43.538a.212.212,0,0,1,.214-.214h.757a.2.2,0,0,1,.174.094l2.183,2.946V43.538a.212.212,0,0,1,.214-.214H18a.212.212,0,0,1,.221.208Zm-5.491-.214h-.763a.212.212,0,0,0-.214.214v4.761a.212.212,0,0,0,.214.214h.763a.212.212,0,0,0,.214-.214V43.531A.216.216,0,0,0,12.73,43.317Zm-1.842,3.991H8.806V43.531a.212.212,0,0,0-.214-.214H7.828a.212.212,0,0,0-.214.214v4.761a.2.2,0,0,0,.06.147.226.226,0,0,0,.147.06h3.06a.212.212,0,0,0,.214-.214v-.763a.214.214,0,0,0-.208-.214Zm11.35-3.991h-3.06a.216.216,0,0,0-.214.214v4.761a.216.216,0,0,0,.214.214h3.06a.212.212,0,0,0,.214-.214v-.763a.212.212,0,0,0-.214-.214H20.156v-.8h2.083a.212.212,0,0,0,.214-.214v-.77a.212.212,0,0,0-.214-.214H20.156v-.8h2.083a.212.212,0,0,0,.214-.214v-.763a.225.225,0,0,0-.214-.214ZM30,37.471v19.1A5.454,5.454,0,0,1,24.529,62H5.424A5.459,5.459,0,0,1,0,56.529v-19.1A5.459,5.459,0,0,1,5.471,32h19.1A5.454,5.454,0,0,1,30,37.471Zm-4.125,8.21c0-4.888-4.9-8.866-10.922-8.866S4.031,40.792,4.031,45.681c0,4.379,3.884,8.049,9.134,8.746,1.279.275,1.132.743.844,2.464-.047.275-.221,1.078.944.589a35.3,35.3,0,0,0,8.585-6.342A7.911,7.911,0,0,0,25.875,45.681Z" transform="translate(0 -32)" fill="#fff"/>
  </g>
</svg>
