<svg id="圖層_1" data-name="圖層 1" xmlns="http://www.w3.org/2000/svg" viewBox="0 0 61.52 58.37"><defs><style>.cls-1{fill:#eaeaea;}.cls-2{fill:#fff;}</style></defs><path class="cls-1" d="M9.83,13.62a1.15,1.15,0,0,1-2.1.94,1.14,1.14,0,0,1,.59-1.5,1.33,1.33,0,0,1,.5-.11,1.09,1.09,0,0,1,1,.67"/><path class="cls-1" d="M13.21,13.91a1.11,1.11,0,0,1-.58,1.49,1.14,1.14,0,0,1-.89-2.09,1.17,1.17,0,0,1,.47-.1,1.07,1.07,0,0,1,1,.7"/><path class="cls-1" d="M10.68,16.9A1.16,1.16,0,0,1,10,18.39a1.08,1.08,0,0,1-1.47-.62,1.17,1.17,0,0,1,.6-1.5,1.14,1.14,0,0,1,.41-.07,1.19,1.19,0,0,1,1.1.7"/><path class="cls-1" d="M15.89,15.24a1.13,1.13,0,0,1-.59,1.5,1.15,1.15,0,0,1-.9-2.11,1,1,0,0,1,.45-.09,1.13,1.13,0,0,1,1,.7"/><path class="cls-1" d="M12.7,19.1a1.12,1.12,0,0,1-.63,1.47,1.08,1.08,0,0,1-1.48-.6,1.1,1.1,0,0,1,.61-1.47,1.06,1.06,0,0,1,.46-.1,1.12,1.12,0,0,1,1,.7"/><path class="cls-2" d="M35.85,4.59A13.48,13.48,0,0,1,37,11c0,1.22-.1,2.44-.06,3.68.1-.49.21-1,.31-1.47.27-1.4.48-2.81.83-4.19.71-2.8,2.17-3.73,5-3.22a4.8,4.8,0,0,0,2-.06,6,6,0,0,1,6.74,3.48,3.78,3.78,0,0,0,2.32,2.41,4.46,4.46,0,0,1,2.25,5.91,16.33,16.33,0,0,1-1.84,3A7.52,7.52,0,0,1,50.23,23c-1,.28-2,.54-3,.81a25.13,25.13,0,0,0-2.86.84l1.92-.34a12.69,12.69,0,0,1,7.83.81,4.72,4.72,0,0,1,2.48,6.56,1.54,1.54,0,0,0,0,1.31,4.41,4.41,0,0,1-2.5,5.77.9.9,0,0,0-.68.94,6.68,6.68,0,0,1-4.79,5.68c-.29.08-.56.46-.72.76a6.15,6.15,0,0,1-9.62,1.65,7.67,7.67,0,0,1-1.45-2.06c-.63-1.2-1.13-2.46-1.72-3.76-.36,2.12-.59,4.11-1.09,6a20.71,20.71,0,0,1-1.66,4.07c-1,2-2.65,2.37-4.69,1.9a6.29,6.29,0,0,1-3.32-2.06,3.83,3.83,0,0,1-4.31,1.2,4.09,4.09,0,0,1-2.75-2.44A12.94,12.94,0,0,0,16,48.87c-1.66-2.38-1.21-5.93,1.12-7.38,2.92-1.81,5.2-4.29,7.65-6.6.06-.06.1-.13.06-.33a10.27,10.27,0,0,0-1.21.82c-1.47,1.28-2.93,2.58-4.39,3.87a10,10,0,0,1-5.74,2.46A3.81,3.81,0,0,1,9,38.36a.73.73,0,0,0-.3-.45c-2.55-1.13-3.13-4.33-1.64-6.83a6.75,6.75,0,0,0,.79-3,4.5,4.5,0,0,1,4.41-4.7,20,20,0,0,1,9,2.13,11.82,11.82,0,0,1,1.19.8l-2.83.8a.37.37,0,0,1,0,.11c.95,0,1.89-.08,2.84-.08a2,2,0,0,1,.64.22c0,.1,0,.2,0,.29l-4.54,2,.06.12c1.59-.34,3.17-.71,4.77-1a15.76,15.76,0,0,1,2.18-.18c.18,0,.37.14.71.28l-4.21,2.68a.35.35,0,0,1,.05.08l6.51-1.18.13.18c-.1.22-.18.44-.3.65A16.93,16.93,0,0,0,26,36.44a4.42,4.42,0,0,0-.05,1c.82-2.55,2.78-4.2,4.62-6-.26,1.69-.77,3.37-.12,5.08a7.16,7.16,0,0,1,1.09-3.44c.63-1,1.35-2,2.07-3.08l4.54,5.32.15-.13c-.53-1.69-1.05-3.39-1.62-5.2a11.5,11.5,0,0,1,5.68,1.66c-1.45-1.7-3.44-2.47-5.47-3.25a16.6,16.6,0,0,1,6.41-.72c-2.36-1-4.9-.88-7.46-1,0-3,1.59-5.15,3.53-7.16a1.07,1.07,0,0,1-.16-.14L36,22.26l-.14,0C36.66,20.1,37.44,18,38.15,16a26.59,26.59,0,0,0-4.7,8.32,20.83,20.83,0,0,1-1.38-5.34H31.9c-.06,1.41-.12,2.82-.19,4.32-1.66-2-1.88-4.29-2-6.7a11.56,11.56,0,0,0,.18,6,6.75,6.75,0,0,1-2-2.7c-.46-1-.8-2.08-1.24-3.11A12.71,12.71,0,0,0,28.38,24a1.86,1.86,0,0,1-1.8-.33A34.67,34.67,0,0,1,18.84,17a7,7,0,0,1-1.17-6.5,5.19,5.19,0,0,1,1.24-1.86C20,7.39,21.15,6.3,22.15,5.06a4.61,4.61,0,0,1,4.76-2,10.55,10.55,0,0,0,4.79-.49,4.31,4.31,0,0,1,1.13-.17,3.31,3.31,0,0,1,3,2.15"/><path class="cls-1" d="M19.91,21.58A44.58,44.58,0,0,0,30.85,25.8a7.8,7.8,0,0,0,1.44.2,1.77,1.77,0,0,1,1.62,1.35,1.72,1.72,0,0,1-.35,2,1.79,1.79,0,0,1-2,.53c-4.73-1.46-8.8-4.12-12.75-7a48.85,48.85,0,0,1-7.13-6.2c-.07-.08-.13-.17-.2-.24a60.89,60.89,0,0,0,8.41,5.15"/></svg>