<svg id="圖層_1" data-name="圖層 1" xmlns="http://www.w3.org/2000/svg" xmlns:xlink="http://www.w3.org/1999/xlink" viewBox="0 0 481.08 262.16"><defs><style>.cls-1{fill:none;}.cls-2{clip-path:url(#clip-path);}.cls-3{fill:url(#linear-gradient);}.cls-4{clip-path:url(#clip-path-2);}.cls-5{fill:url(#linear-gradient-2);}.cls-6{clip-path:url(#clip-path-3);}.cls-7{fill:url(#linear-gradient-3);}.cls-8{clip-path:url(#clip-path-4);}.cls-9{fill:url(#linear-gradient-4);}.cls-10{clip-path:url(#clip-path-5);}.cls-11{fill:url(#linear-gradient-5);}.cls-12{clip-path:url(#clip-path-6);}.cls-13{fill:url(#linear-gradient-6);}.cls-14{clip-path:url(#clip-path-7);}.cls-15{fill:url(#linear-gradient-7);}.cls-16{clip-path:url(#clip-path-8);}.cls-17{fill:url(#linear-gradient-8);}.cls-18{clip-path:url(#clip-path-9);}.cls-19{fill:url(#radial-gradient);}.cls-20{clip-path:url(#clip-path-10);}.cls-21{fill:url(#linear-gradient-9);}.cls-22{clip-path:url(#clip-path-11);}.cls-23{fill:url(#radial-gradient-2);}.cls-24{clip-path:url(#clip-path-12);}.cls-25{fill:url(#radial-gradient-3);}.cls-26{clip-path:url(#clip-path-13);}.cls-27{fill:url(#radial-gradient-4);}.cls-28{clip-path:url(#clip-path-14);}.cls-29{fill:url(#radial-gradient-5);}.cls-30{clip-path:url(#clip-path-15);}.cls-31{fill:url(#radial-gradient-6);}.cls-32{fill:#d9921e;}</style><clipPath id="clip-path"><path class="cls-1" d="M222.64,62.68C220.92,75.77,227,86.84,237.8,90.46l.33.1c.42.13,1.23.36,2.3.61a47.1,47.1,0,0,0,15.75.55c-27.19.88-32-22-28.27-34.13s16.61-23.81,27.79-23,18.38,11.47,18.54,22.61-4.81,18.84-11.55,25.26a25.31,25.31,0,0,1-12.39,6.71l2.53.74s8.67-2,15.14-7.54c6.93-5.61,9-12,10.22-19.74,2.61-16-7.75-28.79-23.05-29h-.49c-16.42,0-29.87,12.63-32,29"/></clipPath><linearGradient id="linear-gradient" x1="-1451.54" y1="1285.74" x2="-1450.54" y2="1285.74" gradientTransform="matrix(37.21, -49.37, -44.34, -28.5, 111254.43, -34925.84)" gradientUnits="userSpaceOnUse"><stop offset="0" stop-color="#965224"/><stop offset="0.5" stop-color="#efb045"/><stop offset="1" stop-color="#f6e277"/></linearGradient><clipPath id="clip-path-2"><path class="cls-1" d="M227.91,57.59c-3.69,12.11,1.08,35,28.27,34.13h0a31.44,31.44,0,0,1-12.39-3.59c-6.31-3.38-11.31-13.15-9.21-26,2.39-14.66,11.8-26.54,21-26.54S270.39,47.42,268,62.08C265.78,75.72,257.23,88,246.93,88.25l3.37,1a25.31,25.31,0,0,0,12.39-6.71c6.74-6.42,11.72-14.13,11.55-25.26s-7.37-21.76-18.54-22.61c-.39,0-.79,0-1.18,0-10.89,0-23,11.18-26.61,23"/></clipPath><linearGradient id="linear-gradient-2" x1="-1460.72" y1="1273.39" x2="-1459.72" y2="1273.39" gradientTransform="matrix(10.08, -57.15, -57.15, 0, 87743.24, -83395.17)" gradientUnits="userSpaceOnUse"><stop offset="0" stop-color="#f6e277"/><stop offset="0.5" stop-color="#efb045"/><stop offset="1" stop-color="#965224"/></linearGradient><clipPath id="clip-path-3"><path class="cls-1" d="M220.63,103.9l4.56-2.89s-3.44-8.48,10.6-10.5l-2.08-1.17c-2.08.23-17.54,2.4-13.08,14.56"/></clipPath><linearGradient id="linear-gradient-3" x1="-1388.14" y1="1286.43" x2="-1387.14" y2="1286.43" gradientTransform="matrix(15.4, -13.09, -10.79, -13.09, 35477.05, -1229.51)" xlink:href="#linear-gradient-2"/><clipPath id="clip-path-4"><path class="cls-1" d="M215.38,107.25l5.25-3.35c-4.46-12.16,11-14.33,13.08-14.56L231.25,88s-17.8,2.85-15.87,19.3"/></clipPath><linearGradient id="linear-gradient-4" x1="-1396.54" y1="1362.85" x2="-1395.54" y2="1362.85" gradientTransform="matrix(16.02, 0, 2.82, -16.02, 18743.09, 21934.47)" xlink:href="#linear-gradient"/><clipPath id="clip-path-5"><path class="cls-1" d="M266.81,93.69c-17.36,8.12-24.71-2.14-48.09,13.56,0,0-25.86,14-20.57,42.27,5.43,29,54.56,29.69,72.22,2,18.17-28.52-4.16-41.79-4.16-41.79a16.67,16.67,0,0,1-5.36,1.2,58.29,58.29,0,0,0-7.62.62c6.47,2.59,23.24,12.17,13.53,32.48-10.32,21.58-30.81,22.09-37.21,22s-29.33-7.87-23.1-31.51,31-28.6,39.92-30.19,15.41-.49,27.27-8.13c11.62-7.5,13.58-22.42,13.84-25-.31,1.36-3.62,14.51-20.67,22.49"/></clipPath><linearGradient id="linear-gradient-5" x1="-1465.27" y1="1291.14" x2="-1464.27" y2="1291.14" gradientTransform="matrix(73.63, -97.7, -87.76, -56.41, 221413.63, -70164.48)" xlink:href="#linear-gradient"/><clipPath id="clip-path-6"><path class="cls-1" d="M287.48,71.2c-.26,2.55-2.22,17.47-13.84,25-11.86,7.64-18.39,6.55-27.27,8.13s-33.7,6.55-39.92,30.19,16.71,31.43,23.1,31.51,26.89-.42,37.21-22c9.71-20.31-7.06-29.89-13.53-32.48a52.15,52.15,0,0,0-21.29,7.83s17.91-7.94,27.6,6.34S252.91,162,232.16,159.8s-18.76-17.9-16.68-24.41,9.67-16.61,22.71-21.41a79.75,79.75,0,0,1,23.86-5.14A25.17,25.17,0,0,0,279,100c6.9-7.88,10.66-19.78,8.51-28.94a1.13,1.13,0,0,0,0,.12"/></clipPath><linearGradient id="linear-gradient-6" x1="-1461.51" y1="1316.76" x2="-1460.51" y2="1316.76" gradientTransform="matrix(60.16, 10.95, 21.89, -62.09, 59308.21, 97871.51)" xlink:href="#linear-gradient-2"/><clipPath id="clip-path-7"><path class="cls-1" d="M284.55,40a31,31,0,0,0-10.95,6.25l1.56.08s4.86-3.75,7.77-3.74c5.44,0,9.12,3.33,9,6.6-.16,4,7.9,1.06,7.9,1.06,1.3-7.47-4-11.1-10.08-11.1a16.78,16.78,0,0,0-5.19.85"/></clipPath><linearGradient id="linear-gradient-7" x1="-1464.92" y1="1202.6" x2="-1463.92" y2="1202.6" gradientTransform="matrix(-6.21, -15.48, -17.05, 8.94, 11705.94, -33365.99)" xlink:href="#linear-gradient-2"/><clipPath id="clip-path-8"><path class="cls-1" d="M299.29,46.24l-8.06,4c0,2.69,1.69,2.69,1.69,2.69,1.91.37-.71-1.66,1.37-2.58,3-1.32,10.85-.62,5.49-6.68a5.38,5.38,0,0,1-.49,2.6M295.89,40a36.7,36.7,0,0,1,3.89,3.65c-.2-1.87-1.79-3-3.9-3.65h0m-13.42-1.67a29.21,29.21,0,0,0-8.28,5.45l-.59,2.47A39.11,39.11,0,0,1,284.55,40a23.16,23.16,0,0,1,11.33,0,13.32,13.32,0,0,0-8.28-2.58,14.21,14.21,0,0,0-5.13.91"/></clipPath><linearGradient id="linear-gradient-8" x1="-1432.22" y1="1334.27" x2="-1431.22" y2="1334.27" gradientTransform="matrix(28.16, 0, 4.96, -28.16, 33978.34, 37615.44)" gradientUnits="userSpaceOnUse"><stop offset="0" stop-color="#f6e276"/><stop offset="0.52" stop-color="#f6e074"/><stop offset="0.7" stop-color="#f5d96d"/><stop offset="0.84" stop-color="#f3ce62"/><stop offset="0.94" stop-color="#f1bd51"/><stop offset="1" stop-color="#efb044"/></linearGradient><clipPath id="clip-path-9"><path class="cls-1" d="M305.43,29.1a9.65,9.65,0,0,0-.83,4.61c0,.88.07,1.75,0,2.64-.07-.35-.15-.71-.22-1.06-.19-1-.34-2-.59-3-.51-2-1.56-2.68-3.59-2.31a3.35,3.35,0,0,1-1.41,0,4.3,4.3,0,0,0-4.82,2.5,2.7,2.7,0,0,1-1.66,1.72,3.2,3.2,0,0,0-1.62,4.23,11.6,11.6,0,0,0,1.32,2.15,5.37,5.37,0,0,0,3.09,1.76l2.12.58a15.28,15.28,0,0,1,2,.6l-1.37-.24a9,9,0,0,0-5.61.57,3.38,3.38,0,0,0-1.77,4.7,1.07,1.07,0,0,1,0,.94,3.15,3.15,0,0,0,1.8,4.13.66.66,0,0,1,.49.68,4.78,4.78,0,0,0,3.42,4.06c.21.06.4.33.52.54A4.39,4.39,0,0,0,303.66,60a5.44,5.44,0,0,0,1-1.47c.45-.86.81-1.76,1.23-2.69.26,1.52.43,2.94.78,4.31a15.7,15.7,0,0,0,1.19,2.92c.73,1.44,1.9,1.69,3.36,1.36A4.51,4.51,0,0,0,313.64,63a2.77,2.77,0,0,0,3.09.86,3,3,0,0,0,2-1.75,9.66,9.66,0,0,1,.93-1.3,3.81,3.81,0,0,0-.8-5.29,35.88,35.88,0,0,1-5.48-4.73s-.07-.09,0-.23a7.6,7.6,0,0,1,.86.58c1.06.92,2.1,1.85,3.15,2.78a7.16,7.16,0,0,0,4.11,1.76,2.73,2.73,0,0,0,3.22-2.4.49.49,0,0,1,.21-.32A3.34,3.34,0,0,0,326,48.07a4.93,4.93,0,0,1-.57-2.16,3.22,3.22,0,0,0-3.16-3.37,14.35,14.35,0,0,0-6.4,1.52c-.27.14-.51.35-.86.58l2,.57a.25.25,0,0,1,0,.08c-.67,0-1.35-.06-2-.06a1.33,1.33,0,0,0-.46.16,1.48,1.48,0,0,0,0,.21l3.24,1.46,0,.08c-1.14-.24-2.27-.51-3.42-.72a11.58,11.58,0,0,0-1.56-.13,1.83,1.83,0,0,0-.51.2l3,1.92,0,.06-4.66-.85a1.47,1.47,0,0,1-.1.13,4.91,4.91,0,0,0,.22.46,12.15,12.15,0,0,1,1.75,3.69,3,3,0,0,1,0,.74c-.59-1.82-2-3-3.31-4.27a6.78,6.78,0,0,1,.09,3.63,5.1,5.1,0,0,0-.78-2.46c-.45-.74-1-1.44-1.48-2.2l-3.25,3.8-.11-.08c.38-1.22.75-2.43,1.16-3.73a8.27,8.27,0,0,0-4.07,1.19,9.07,9.07,0,0,1,3.92-2.33,11.9,11.9,0,0,0-4.59-.51c1.69-.73,3.51-.63,5.34-.75a7.45,7.45,0,0,0-2.52-5.13l.11-.1,2.28,2h.1l-1.62-4.51a18.86,18.86,0,0,1,3.37,6,15,15,0,0,0,1-3.82h.12c0,1,.09,2,.13,3.09a7.33,7.33,0,0,0,1.42-4.8,8.31,8.31,0,0,1-.12,4.32A5,5,0,0,0,311.11,40c.32-.72.57-1.48.88-2.22A9.11,9.11,0,0,1,310.78,43a1.34,1.34,0,0,0,1.29-.23,24.67,24.67,0,0,0,5.54-4.8,5,5,0,0,0,.83-4.65,3.55,3.55,0,0,0-.88-1.33c-.75-.86-1.6-1.64-2.32-2.53A3.3,3.3,0,0,0,311.83,28a7.37,7.37,0,0,1-3.42-.35,3.07,3.07,0,0,0-.82-.12,2.38,2.38,0,0,0-2.16,1.54"/></clipPath><radialGradient id="radial-gradient" cx="-1422.14" cy="1377.49" r="1" gradientTransform="matrix(0, 18.66, 18.66, 0, -25391.37, 26579.38)" gradientUnits="userSpaceOnUse"><stop offset="0" stop-color="#f6e277"/><stop offset="0.56" stop-color="#efb045"/><stop offset="0.67" stop-color="#e9a942"/><stop offset="0.84" stop-color="#d79639"/><stop offset="1" stop-color="#bf7c2d"/></radialGradient><clipPath id="clip-path-10"><path class="cls-1" d="M316.84,41.26a31.7,31.7,0,0,1-7.83,3,5.81,5.81,0,0,1-1,.14,1.27,1.27,0,0,0-1.16,1,1.23,1.23,0,0,0,.25,1.42,1.29,1.29,0,0,0,1.42.37,31.62,31.62,0,0,0,9.13-5,35.3,35.3,0,0,0,5.1-4.44,1.22,1.22,0,0,1,.15-.17,43.77,43.77,0,0,1-6,3.68"/></clipPath><linearGradient id="linear-gradient-9" x1="-1379.84" y1="1313.89" x2="-1378.84" y2="1313.89" gradientTransform="matrix(18.31, 0, 0, -18.31, 25565.52, 24095.73)" gradientUnits="userSpaceOnUse"><stop offset="0" stop-color="#965224"/><stop offset="0.37" stop-color="#efb045"/><stop offset="1" stop-color="#f6e277"/></linearGradient><clipPath id="clip-path-11"><path class="cls-1" d="M324.06,35.57a.79.79,0,0,0,.42,1.07.81.81,0,1,0,.66-1.47.8.8,0,0,0-1.08.4"/></clipPath><radialGradient id="radial-gradient-2" cx="-172.34" cy="3148.23" r="1" gradientTransform="matrix(0, 0.82, 0.82, 0, -2242, 176.68)" gradientUnits="userSpaceOnUse"><stop offset="0" stop-color="#f6e277"/><stop offset="0.56" stop-color="#efb045"/><stop offset="0.65" stop-color="#e7a842"/><stop offset="0.79" stop-color="#d29138"/><stop offset="0.97" stop-color="#af6b29"/><stop offset="1" stop-color="#a86426"/></radialGradient><clipPath id="clip-path-12"><path class="cls-1" d="M321.64,35.77a.8.8,0,0,0,.42,1.07.81.81,0,0,0,1.07-.43.8.8,0,0,0-.44-1.06.81.81,0,0,0-.34-.08.79.79,0,0,0-.71.5"/></clipPath><radialGradient id="radial-gradient-3" cx="-166.06" cy="3155.64" r="1" gradientTransform="matrix(0, 0.81, 0.81, 0, -2239.73, 170.64)" xlink:href="#radial-gradient-2"/><clipPath id="clip-path-13"><path class="cls-1" d="M323.45,37.91a.83.83,0,0,0,.46,1.07.77.77,0,0,0,1-.44.81.81,0,0,0-.43-1.07.72.72,0,0,0-.29-.06.88.88,0,0,0-.79.5"/></clipPath><radialGradient id="radial-gradient-4" cx="-175.32" cy="3142.2" r="1" gradientTransform="matrix(0, 0.82, 0.82, 0, -2246.67, 181.06)" xlink:href="#radial-gradient-2"/><clipPath id="clip-path-14"><path class="cls-1" d="M319.73,36.73a.8.8,0,1,0,1.06-.44.77.77,0,0,0-.32-.07.79.79,0,0,0-.74.51"/></clipPath><radialGradient id="radial-gradient-5" cx="-169.89" cy="3149.38" r="1" gradientTransform="matrix(0, 0.81, 0.81, 0, -2245.19, 175.51)" xlink:href="#radial-gradient-2"/><clipPath id="clip-path-15"><path class="cls-1" d="M322,39.49a.81.81,0,0,0,.45,1.06.81.81,0,1,0,.29-1.56.81.81,0,0,0-.74.5"/></clipPath><radialGradient id="radial-gradient-6" cx="-166.46" cy="3157.05" r="1" gradientTransform="matrix(0, 0.81, 0.81, 0, -2239.84, 175.43)" xlink:href="#radial-gradient-2"/></defs><g class="cls-2"><polygon class="cls-3" points="190.99 73.36 240.46 7.72 310.73 52.89 261.26 118.53 190.99 73.36"/></g><g class="cls-4"><polygon class="cls-5" points="213.99 92.6 224.22 34.59 284.63 34.59 274.41 92.6 213.99 92.6"/></g><g class="cls-6"><polygon class="cls-7" points="209.11 95.33 227.71 79.52 242.85 97.9 224.25 113.72 209.11 95.33"/></g><g class="cls-8"><polygon class="cls-9" points="213.45 87.95 237.11 87.95 233.71 107.25 210.04 107.25 213.45 87.95"/></g><g class="cls-10"><polygon class="cls-11" points="138.03 143.96 224.09 29.77 343.38 106.45 257.32 220.64 138.03 143.96"/></g><g class="cls-12"><polygon class="cls-13" points="205.62 55.78 321.13 76.81 284.26 181.38 168.74 160.36 205.62 55.78"/></g><g class="cls-14"><polygon class="cls-15" points="278.38 65.08 268.96 41.58 296.34 27.23 305.77 50.73 278.38 65.08"/></g><g class="cls-16"><polygon class="cls-17" points="273.6 37.41 307.94 37.41 305.14 53.27 270.81 53.27 273.6 37.41"/></g><g class="cls-18"><rect class="cls-19" x="284.57" y="22.31" width="47.67" height="47.76" transform="translate(160.95 320.97) rotate(-70.3)"/></g><g class="cls-20"><rect class="cls-21" x="305.31" y="34.59" width="18.87" height="15.77" transform="translate(11.85 137.98) rotate(-25.19)"/></g><g class="cls-22"><rect class="cls-23" x="323.68" y="34.79" width="2.27" height="2.35" transform="translate(181.42 329.62) rotate(-70.29)"/></g><g class="cls-24"><rect class="cls-25" x="321.25" y="34.98" width="2.27" height="2.33" transform="translate(179.71 327.49) rotate(-70.31)"/></g><g class="cls-26"><rect class="cls-27" x="323.07" y="37.12" width="2.27" height="2.33" transform="translate(178.95 330.65) rotate(-70.31)"/></g><g class="cls-28"><rect class="cls-29" x="319.33" y="35.93" width="2.28" height="2.34" transform="translate(177.52 326.31) rotate(-70.3)"/></g><g class="cls-30"><rect class="cls-31" x="321.63" y="38.69" width="2.26" height="2.34" transform="translate(176.36 330.26) rotate(-70.28)"/></g><path class="cls-32" d="M60.35,212.91a1.54,1.54,0,0,1-.35-.79l-.19-.76H57.13v8.92h2.68l.19-.76a1.63,1.63,0,0,1,.35-.8,2.38,2.38,0,0,1,1.1-.16h8.1v5.29a17.17,17.17,0,0,1-5.41,2.86,23.26,23.26,0,0,1-7.31,1.14c-4.79,0-8.77-1.23-11.82-3.67a12.63,12.63,0,0,1-4.92-10.52,12.81,12.81,0,0,1,5.16-10.79,17.87,17.87,0,0,1,11.29-3.57A24.69,24.69,0,0,1,68,202.19a8.75,8.75,0,0,1,2.43,1.54,3.08,3.08,0,0,1-.32.58l-.52.83,2.38,1.57,5.44-8.22L75,197l-.56.68a5.19,5.19,0,0,1-.67.7c-.16-.07-.46-.2-1-.47a38.36,38.36,0,0,0-8-3.27,31.07,31.07,0,0,0-8.09-1,29.11,29.11,0,0,0-9.34,1.47,21.22,21.22,0,0,0-9.92,6.79,18.33,18.33,0,0,0-4,11.62,19.23,19.23,0,0,0,7,14.82c4.13,3.45,9.58,5.19,16.22,5.19a30.29,30.29,0,0,0,14.41-3.38,35.56,35.56,0,0,0,6.17-4.34l.35-.3v-2l-.75-.19c-.74-.18-.9-.38-.9-.38a1.83,1.83,0,0,1-.15-1v-4.74a1.83,1.83,0,0,1,.15-1,1.91,1.91,0,0,1,.9-.38l.75-.19v-2.64H61.45a2.21,2.21,0,0,1-1.1-.16"/><path class="cls-32" d="M119.74,204.61c-3.6-2.93-8.38-4.41-14.2-4.41h0a26.74,26.74,0,0,0-8.63,1.37,17.06,17.06,0,0,0-8.45,6.19,15.42,15.42,0,0,0-2.86,9.1,15.14,15.14,0,0,0,5.86,12.26c3.6,2.92,8.36,4.4,14.15,4.4,7.77,0,13.53-2.54,17.11-7.55a15,15,0,0,0,2.89-8.89,15.28,15.28,0,0,0-5.86-12.47m-14.14,23.8c-4.33,0-7.84-1.26-10.44-3.74a10.77,10.77,0,0,1,0-15.61c2.59-2.49,6.08-3.75,10.38-3.75s7.88,1.3,10.5,3.76a10.28,10.28,0,0,1,3.34,8,10.13,10.13,0,0,1-3.35,7.65c-2.6,2.48-6.1,3.74-10.43,3.74"/><path class="cls-32" d="M161.47,227c-.18.67-.37.81-.38.81a2.06,2.06,0,0,1-1.1.17H141.76V204.87a1.91,1.91,0,0,1,.14-1s.17-.2.9-.38l.76-.19v-2.51h-9.63v2.51l.75.19c.74.18.9.38.9.38a1.8,1.8,0,0,1,.15,1v24c0,.75-.15,1-.16,1s-.16.2-.89.39l-.75.19v2.5H160a2.11,2.11,0,0,1,1.1.17s.2.15.38.81l.21.74h2.52v-8.36h-2.52Z"/><path class="cls-32" d="M197.39,202.35c-2.23-1-5.48-1.51-9.93-1.51H170.52v2.51l.77.19a1.93,1.93,0,0,1,.88.36,1.75,1.75,0,0,1,.16,1v24c0,.76-.15,1-.16,1s-.15.19-.88.37l-.77.18v2.51h16.94a25.93,25.93,0,0,0,9.81-1.5,13.26,13.26,0,0,0,6-5.26,17,17,0,0,0,2.69-9.26,17.17,17.17,0,0,0-2-8.11,14.05,14.05,0,0,0-6.56-6.4m-19,3.42h8.89a21.85,21.85,0,0,1,6.22.7,8.11,8.11,0,0,1,3.59,2.26,11.8,11.8,0,0,1,2.7,8.13,14,14,0,0,1-1,5.28,8.7,8.7,0,0,1-3.85,4.5c-1.57.87-4.16,1.32-7.7,1.32h-8.89Z"/><path class="cls-32" d="M242.07,227c-.16.66-.35.79-.35.79a2.11,2.11,0,0,1-1.1.17H222.13v-9.13h11.31a2.22,2.22,0,0,1,1.07.16s.2.14.38.82l.2.73h2.53v-8.35H235.1l-.21.73c-.18.68-.37.82-.38.83a2.27,2.27,0,0,1-1.07.15H222.13v-8.13h18.32a2.35,2.35,0,0,1,1.08.15s.19.15.37.83l.21.73h2.52v-8.35h-2.52l-.21.73c-.18.68-.37.82-.38.83a2.27,2.27,0,0,1-1.07.15H214.3v2.51l.76.19a1.86,1.86,0,0,1,.9.38,1.91,1.91,0,0,1,.14,1v24c0,.76-.14,1-.15,1a1.85,1.85,0,0,1-.89.37l-.76.18v2.51h26.34a2.22,2.22,0,0,1,1.08.16s.18.14.35.8l.19.76h2.57v-8.36h-2.58Z"/><path class="cls-32" d="M279.68,203.35l.75.19c.74.18.9.38.9.38a1.8,1.8,0,0,1,.15,1v18.34l-16.89-18c-.76-.79-.79-1.17-.79-1.24s.23-.27.76-.44l.7-.22v-2.46H253v2.51l.76.19a1.86,1.86,0,0,1,.9.38,1.91,1.91,0,0,1,.14,1v24c0,.76-.14,1-.15,1a1.85,1.85,0,0,1-.89.37l-.76.18v2.51h9v-2.51l-.77-.18a1,1,0,0,1-1-1.34v-19.8l18.6,19.68a8.55,8.55,0,0,1,1,1.24,2.32,2.32,0,0,1-.63.21l-.77.19v2.51h10.25v-2.51l-.76-.18a1.85,1.85,0,0,1-.89-.37,1.94,1.94,0,0,1-.15-1v-24c0-.75.14-1,.15-1s.16-.2.89-.38l.76-.19v-2.51h-8.95Z"/><path class="cls-32" d="M350.6,212.23a14.88,14.88,0,0,0-4.93-1.47c-1.89-.26-5-.46-9.37-.58-3.07-.09-5.31-.22-6.65-.38a12.28,12.28,0,0,1-3.32-.85,4.2,4.2,0,0,1-1.8-1.44,3.27,3.27,0,0,1-.66-1.95,4,4,0,0,1,.88-2.45,6.87,6.87,0,0,1,2.58-2.06A19.86,19.86,0,0,1,336,199.3a28.25,28.25,0,0,1,11.59,2.44,4.31,4.31,0,0,1,1.47.89,10.54,10.54,0,0,1-.39,1.07l-.33.85,2.44,1.24,5.05-8.68-2.48-1.18-.5.61a3.88,3.88,0,0,1-.65.68l-.71-.27a44.11,44.11,0,0,0-7.66-2.57,34.43,34.43,0,0,0-7.38-.75,31.92,31.92,0,0,0-9,1.21,16.79,16.79,0,0,0-6.62,3.42,9.77,9.77,0,0,0-3.36,7.42,9.14,9.14,0,0,0,4.86,8.09,17.58,17.58,0,0,0,5.18,1.77,55.33,55.33,0,0,0,7.73.71c4.5.16,7.26.28,8.19.36a10.86,10.86,0,0,1,2.58.53c3.14,1,3.5,2.78,3.5,4a4.91,4.91,0,0,1-2.08,3.94c-2.26,1.83-5.69,2.76-10.18,2.76a27.57,27.57,0,0,1-6.29-.68,28.3,28.3,0,0,1-6-2.25,11.33,11.33,0,0,1-3-1.86,8.31,8.31,0,0,1,.4-.9l.43-.86L320.27,220,315,228.35l2.33,1.4.55-.59a4.52,4.52,0,0,1,.65-.61c.18.06.52.19,1.16.47a47.06,47.06,0,0,0,8.87,3.53,35,35,0,0,0,8.75,1c5.83,0,10.49-1.25,13.86-3.73a10.64,10.64,0,0,0,4.74-8.93,9.24,9.24,0,0,0-5.31-8.63"/><path class="cls-32" d="M397.35,196.4a13.24,13.24,0,0,0-4.56-1.68,39.87,39.87,0,0,0-6.8-.45H364.77v2.63l.75.2a2,2,0,0,1,.92.4.94.94,0,0,1,.13.56v31a1,1,0,0,1-.13.59,2.12,2.12,0,0,1-.92.41l-.75.19v2.63h10v-2.63l-.75-.19a2.3,2.3,0,0,1-.93-.41,1,1,0,0,1-.13-.59V216.41h13a32.21,32.21,0,0,0,8.43-.85,10.9,10.9,0,0,0,5.18-3.18,10.27,10.27,0,0,0,2.68-7.1,10.39,10.39,0,0,0-1.47-5.46,9.69,9.69,0,0,0-3.46-3.42m-10.94,14.53H373V199.76h13.42a34,34,0,0,1,4.64.23,7.38,7.38,0,0,1,2.45.82,5.54,5.54,0,0,1,0,9.07,7.34,7.34,0,0,1-2.47.82,33.93,33.93,0,0,1-4.62.23"/><path class="cls-32" d="M446.84,230.05c-1.27-.3-1.54-.57-1.57-.61a20.77,20.77,0,0,1-1.82-3.39L430,198.16c-.2-.42-.31-.68-.36-.81a2.66,2.66,0,0,1,.63-.26l.71-.22v-2.6H419.59v2.64l.75.19a2.39,2.39,0,0,1,.59.21,8.6,8.6,0,0,1-.37.85l-14.08,29a10.53,10.53,0,0,1-1.4,2.41,2.2,2.2,0,0,1-1.21.52l-.84.13v2.71H413.6v-2.71l-.84-.13a3.25,3.25,0,0,1-.79-.22,6.51,6.51,0,0,1,.34-.83l3.11-6.38h19.31l2.88,6c.43.86.5,1.17.53,1.17h0a1.52,1.52,0,0,1-.79.23l-.87.11v2.74h11.13v-2.65Zm-14.7-12.93H418l7.06-14.77Z"/></svg>