<?xml version="1.0" encoding="utf-8"?>
<!-- Generator: Adobe Illustrator 25.2.1, SVG Export Plug-In . SVG Version: 6.00 Build 0)  -->
<svg version="1.1" id="圖層_1" xmlns="http://www.w3.org/2000/svg" xmlns:xlink="http://www.w3.org/1999/xlink" x="0px" y="0px"
	 viewBox="0 0 363 93" style="enable-background:new 0 0 363 93;" xml:space="preserve">
<style type="text/css">
	.st0{clip-path:url(#SVGID_2_);fill:url(#SVGID_3_);}
	.st1{clip-path:url(#SVGID_5_);fill:url(#SVGID_6_);}
	.st2{clip-path:url(#SVGID_8_);fill:url(#SVGID_9_);}
	.st3{clip-path:url(#SVGID_11_);fill:url(#SVGID_12_);}
	.st4{clip-path:url(#SVGID_14_);fill:url(#SVGID_15_);}
	.st5{clip-path:url(#SVGID_17_);fill:url(#SVGID_18_);}
	.st6{clip-path:url(#SVGID_20_);fill:url(#SVGID_21_);}
	.st7{clip-path:url(#SVGID_23_);fill:url(#SVGID_24_);}
	.st8{clip-path:url(#SVGID_26_);fill:url(#SVGID_27_);}
	.st9{clip-path:url(#SVGID_29_);fill:url(#SVGID_30_);}
	.st10{clip-path:url(#SVGID_32_);fill:url(#SVGID_33_);}
	.st11{clip-path:url(#SVGID_35_);fill:url(#SVGID_36_);}
	.st12{clip-path:url(#SVGID_38_);fill:url(#SVGID_39_);}
	.st13{clip-path:url(#SVGID_41_);fill:url(#SVGID_42_);}
	.st14{clip-path:url(#SVGID_44_);fill:url(#SVGID_45_);}
	.st15{clip-path:url(#SVGID_47_);fill:url(#SVGID_48_);}
	.st16{clip-path:url(#SVGID_50_);fill:url(#SVGID_51_);}
	.st17{clip-path:url(#SVGID_53_);fill:url(#SVGID_54_);}
	.st18{clip-path:url(#SVGID_56_);fill:url(#SVGID_57_);}
	.st19{clip-path:url(#SVGID_59_);fill:url(#SVGID_60_);}
	.st20{clip-path:url(#SVGID_62_);fill:url(#SVGID_63_);}
	.st21{clip-path:url(#SVGID_65_);fill:url(#SVGID_66_);}
	.st22{clip-path:url(#SVGID_68_);fill:url(#SVGID_69_);}
	.st23{clip-path:url(#SVGID_71_);fill:url(#SVGID_72_);}
	.st24{clip-path:url(#SVGID_74_);fill:url(#SVGID_75_);}
	.st25{clip-path:url(#SVGID_77_);fill:url(#SVGID_78_);}
	.st26{clip-path:url(#SVGID_80_);fill:url(#SVGID_81_);}
	.st27{clip-path:url(#SVGID_83_);fill:url(#SVGID_84_);}
	.st28{clip-path:url(#SVGID_86_);fill:url(#SVGID_87_);}
	.st29{clip-path:url(#SVGID_89_);fill:url(#SVGID_90_);}
	.st30{clip-path:url(#SVGID_92_);fill:url(#SVGID_93_);}
	.st31{clip-path:url(#SVGID_95_);fill:url(#SVGID_96_);}
	.st32{clip-path:url(#SVGID_98_);fill:url(#SVGID_99_);}
	.st33{clip-path:url(#SVGID_101_);fill:url(#SVGID_102_);}
	.st34{clip-path:url(#SVGID_104_);fill:url(#SVGID_105_);}
	.st35{clip-path:url(#SVGID_107_);fill:url(#SVGID_108_);}
	.st36{clip-path:url(#SVGID_110_);fill:url(#SVGID_111_);}
	.st37{clip-path:url(#SVGID_113_);fill:url(#SVGID_114_);}
	.st38{clip-path:url(#SVGID_116_);fill:url(#SVGID_117_);}
	.st39{clip-path:url(#SVGID_119_);fill:url(#SVGID_120_);}
	.st40{clip-path:url(#SVGID_122_);fill:url(#SVGID_123_);}
	.st41{clip-path:url(#SVGID_125_);fill:url(#SVGID_126_);}
	.st42{clip-path:url(#SVGID_128_);fill:url(#SVGID_129_);}
	.st43{clip-path:url(#SVGID_131_);fill:url(#SVGID_132_);}
	.st44{clip-path:url(#SVGID_134_);fill:url(#SVGID_135_);}
	.st45{clip-path:url(#SVGID_137_);fill:url(#SVGID_138_);}
	.st46{clip-path:url(#SVGID_140_);fill:url(#SVGID_141_);}
	.st47{clip-path:url(#SVGID_143_);fill:url(#SVGID_144_);}
	.st48{clip-path:url(#SVGID_146_);fill:url(#SVGID_147_);}
	.st49{clip-path:url(#SVGID_149_);fill:url(#SVGID_150_);}
	.st50{clip-path:url(#SVGID_152_);fill:url(#SVGID_153_);}
	.st51{fill:#DBDBDB;}
	.st52{clip-path:url(#SVGID_155_);fill:url(#SVGID_156_);}
	.st53{clip-path:url(#SVGID_158_);fill:url(#SVGID_159_);}
	.st54{clip-path:url(#SVGID_161_);fill:url(#SVGID_162_);}
	.st55{clip-path:url(#SVGID_164_);fill:url(#SVGID_165_);}
	.st56{clip-path:url(#SVGID_167_);fill:url(#SVGID_168_);}
	.st57{clip-path:url(#SVGID_170_);fill:url(#SVGID_171_);}
	.st58{fill:#FFFFFF;}
	.st59{clip-path:url(#SVGID_173_);fill:url(#SVGID_174_);}
	.st60{clip-path:url(#SVGID_176_);fill:url(#SVGID_177_);}
	.st61{clip-path:url(#SVGID_179_);fill:url(#SVGID_180_);}
	.st62{clip-path:url(#SVGID_182_);fill:url(#SVGID_183_);}
	.st63{clip-path:url(#SVGID_185_);fill:url(#SVGID_186_);}
	.st64{clip-path:url(#SVGID_188_);fill:url(#SVGID_189_);}
	.st65{clip-path:url(#SVGID_191_);fill:url(#SVGID_192_);}
	.st66{clip-path:url(#SVGID_194_);fill:url(#SVGID_195_);}
	.st67{clip-path:url(#SVGID_197_);fill:url(#SVGID_198_);}
	.st68{clip-path:url(#SVGID_200_);fill:url(#SVGID_201_);}
	.st69{clip-path:url(#SVGID_203_);fill:url(#SVGID_204_);}
	.st70{clip-path:url(#SVGID_206_);fill:url(#SVGID_207_);}
	.st71{clip-path:url(#SVGID_209_);fill:url(#SVGID_210_);}
	.st72{clip-path:url(#SVGID_212_);fill:url(#SVGID_213_);}
	.st73{clip-path:url(#SVGID_215_);fill:url(#SVGID_216_);}
	.st74{fill:#D9921E;}
	.st75{clip-path:url(#SVGID_218_);fill:url(#SVGID_219_);}
	.st76{clip-path:url(#SVGID_221_);fill:url(#SVGID_222_);}
	.st77{clip-path:url(#SVGID_224_);fill:url(#SVGID_225_);}
	.st78{clip-path:url(#SVGID_227_);fill:url(#SVGID_228_);}
	.st79{clip-path:url(#SVGID_230_);fill:url(#SVGID_231_);}
	.st80{clip-path:url(#SVGID_233_);fill:url(#SVGID_234_);}
	.st81{clip-path:url(#SVGID_236_);fill:url(#SVGID_237_);}
	.st82{clip-path:url(#SVGID_239_);fill:url(#SVGID_240_);}
	.st83{clip-path:url(#SVGID_242_);fill:url(#SVGID_243_);}
	.st84{clip-path:url(#SVGID_245_);fill:url(#SVGID_246_);}
	.st85{clip-path:url(#SVGID_248_);fill:url(#SVGID_249_);}
	.st86{clip-path:url(#SVGID_251_);fill:url(#SVGID_252_);}
	.st87{clip-path:url(#SVGID_254_);fill:url(#SVGID_255_);}
	.st88{clip-path:url(#SVGID_257_);fill:url(#SVGID_258_);}
	.st89{clip-path:url(#SVGID_260_);fill:url(#SVGID_261_);}
	.st90{fill:none;stroke:#FFFFFF;stroke-linecap:round;stroke-linejoin:round;}
	.st91{clip-path:url(#SVGID_263_);fill:url(#SVGID_264_);}
	.st92{clip-path:url(#SVGID_266_);fill:url(#SVGID_267_);}
	.st93{clip-path:url(#SVGID_269_);fill:url(#SVGID_270_);}
	.st94{clip-path:url(#SVGID_272_);fill:url(#SVGID_273_);}
	.st95{clip-path:url(#SVGID_275_);fill:url(#SVGID_276_);}
	.st96{clip-path:url(#SVGID_278_);fill:url(#SVGID_279_);}
	.st97{clip-path:url(#SVGID_281_);fill:url(#SVGID_282_);}
	.st98{clip-path:url(#SVGID_284_);fill:url(#SVGID_285_);}
	.st99{clip-path:url(#SVGID_287_);fill:url(#SVGID_288_);}
	.st100{clip-path:url(#SVGID_290_);fill:url(#SVGID_291_);}
	.st101{clip-path:url(#SVGID_293_);fill:url(#SVGID_294_);}
	.st102{clip-path:url(#SVGID_296_);fill:url(#SVGID_297_);}
	.st103{clip-path:url(#SVGID_299_);fill:url(#SVGID_300_);}
	.st104{clip-path:url(#SVGID_302_);fill:url(#SVGID_303_);}
	.st105{clip-path:url(#SVGID_305_);fill:url(#SVGID_306_);}
	.st106{fill:#D3D3D3;}
	.st107{fill:#EAEAEA;}
	.st108{fill:url(#SVGID_307_);}
	.st109{fill:url(#SVGID_308_);}
	.st110{fill:url(#SVGID_309_);}
	.st111{fill:url(#SVGID_310_);}
	.st112{fill:url(#SVGID_311_);}
	.st113{fill:url(#SVGID_312_);}
	.st114{fill:url(#SVGID_313_);}
	.st115{fill:none;stroke:#FFFFFF;stroke-width:1.926;stroke-linecap:round;stroke-linejoin:round;}
	.st116{fill:url(#SVGID_314_);}
	.st117{fill:url(#SVGID_315_);}
	.st118{fill:url(#SVGID_316_);}
	.st119{fill:url(#SVGID_317_);}
	.st120{fill:url(#SVGID_318_);}
	.st121{fill:url(#SVGID_319_);}
	.st122{fill:url(#SVGID_320_);}
	.st123{fill:url(#SVGID_321_);}
	.st124{fill:url(#SVGID_322_);}
	.st125{fill:url(#SVGID_323_);}
	.st126{fill:url(#SVGID_324_);}
	.st127{fill:url(#SVGID_325_);}
	.st128{fill:url(#SVGID_326_);}
	.st129{fill:url(#SVGID_327_);}
	.st130{fill:url(#SVGID_328_);}
	.st131{clip-path:url(#SVGID_330_);fill:#DBDBDB;}
	.st132{clip-path:url(#SVGID_332_);fill:#DBDBDB;}
	.st133{clip-path:url(#SVGID_334_);fill:#DBDBDB;}
	.st134{clip-path:url(#SVGID_336_);fill:#DBDBDB;}
	.st135{clip-path:url(#SVGID_338_);fill:#DBDBDB;}
	.st136{clip-path:url(#SVGID_340_);fill:#FFFFFF;}
	.st137{clip-path:url(#SVGID_342_);fill:#DBDBDB;}
	.st138{clip-path:url(#SVGID_344_);fill:#DBDBDB;}
	.st139{clip-path:url(#SVGID_346_);fill:#FFFFFF;}
	.st140{clip-path:url(#SVGID_348_);fill:#FFFFFF;}
	.st141{clip-path:url(#SVGID_350_);fill:#DBDBDB;}
	.st142{clip-path:url(#SVGID_352_);fill:#D3D3D3;}
	.st143{clip-path:url(#SVGID_354_);fill:#FFFFFF;}
	.st144{clip-path:url(#SVGID_356_);fill:#FFFFFF;}
	.st145{clip-path:url(#SVGID_358_);fill:#DBDBDB;}
</style>
<g>
	<g>
		<defs>
			<path id="SVGID_172_" d="M16.3,22.7c-1.1,8.4,2.8,15.6,9.8,17.9c0.1,0,0.1,0,0.2,0.1c0.3,0.1,0.8,0.2,1.5,0.4
				c2.5,0.6,7,0.9,10.2,0.4c-17.5,0.6-20.6-14.2-18.2-22C22.1,11.5,30.4,4,37.6,4.6c7.2,0.6,11.9,7.4,12,14.6
				c0.1,7.2-3.1,12.2-7.5,16.3c-3.3,3.1-6.5,4.1-8,4.3l1.6,0.5c0,0,5.6-1.3,9.8-4.9c4.5-3.6,5.8-7.8,6.6-12.7
				c1.7-10.3-5-18.6-14.9-18.7c-0.1,0-0.2,0-0.3,0C26.3,3.9,17.6,12.1,16.3,22.7"/>
		</defs>
		<clipPath id="SVGID_2_">
			<use xlink:href="#SVGID_172_"  style="overflow:visible;"/>
		</clipPath>
		
			<linearGradient id="SVGID_3_" gradientUnits="userSpaceOnUse" x1="-997.4725" y1="1440.5245" x2="-996.8274" y2="1440.5245" gradientTransform="matrix(37.207 -49.3691 -44.3439 -28.5032 101013.9297 -8145.9351)">
			<stop  offset="0" style="stop-color:#965224"/>
			<stop  offset="0.4993" style="stop-color:#EFB045"/>
			<stop  offset="1" style="stop-color:#F6E277"/>
		</linearGradient>
		<polygon class="st0" points="-4.2,29.5 27.8,-12.8 73.1,16.3 41.2,58.7 		"/>
	</g>
	<g>
		<defs>
			<path id="SVGID_175_" d="M19.7,19.4c-2.4,7.8,0.7,22.6,18.2,22c0,0,0,0,0,0c0,0-3.9-0.1-8-2.3c-4.1-2.2-7.3-8.5-5.9-16.8
				c1.5-9.5,7.6-17.1,13.6-17.1c5.9,0,9.5,7.7,8,17.1c-1.4,8.8-7,16.7-13.6,16.9l2.2,0.6c1.4-0.3,4.7-1.2,8-4.3
				c4.3-4.1,7.6-9.1,7.5-16.3c-0.1-7.2-4.8-14-12-14.6c-0.3,0-0.5,0-0.8,0C29.8,4.5,22,11.7,19.7,19.4"/>
		</defs>
		<clipPath id="SVGID_5_">
			<use xlink:href="#SVGID_175_"  style="overflow:visible;"/>
		</clipPath>
		
			<linearGradient id="SVGID_6_" gradientUnits="userSpaceOnUse" x1="-1000.0396" y1="1428.1918" x2="-999.3942" y2="1428.1918" gradientTransform="matrix(10.0764 -57.1546 -57.1546 0 91734.7891 -57115.4648)">
			<stop  offset="0" style="stop-color:#F6E277"/>
			<stop  offset="0.5007" style="stop-color:#EFB045"/>
			<stop  offset="1" style="stop-color:#965224"/>
		</linearGradient>
		<polygon class="st1" points="10.7,42 17.3,4.5 56.2,4.5 49.7,42 		"/>
	</g>
	<g>
		<defs>
			<path id="SVGID_178_" d="M15,49.2l2.9-1.9c0,0-2.2-5.5,6.8-6.8l-1.3-0.8C22.1,40,12.1,41.4,15,49.2"/>
		</defs>
		<clipPath id="SVGID_8_">
			<use xlink:href="#SVGID_178_"  style="overflow:visible;"/>
		</clipPath>
		
			<linearGradient id="SVGID_9_" gradientUnits="userSpaceOnUse" x1="-949.9446" y1="1463.0168" x2="-949.2995" y2="1463.0168" gradientTransform="matrix(15.4034 -13.0948 -10.7862 -13.0948 30426.8711 6766.7915)">
			<stop  offset="0" style="stop-color:#F6E277"/>
			<stop  offset="0.5007" style="stop-color:#EFB045"/>
			<stop  offset="1" style="stop-color:#965224"/>
		</linearGradient>
		<polygon class="st2" points="7.5,43.7 19.5,33.5 29.3,45.4 17.3,55.6 		"/>
	</g>
	<g>
		<defs>
			<path id="SVGID_181_" d="M11.6,51.4l3.4-2.2c-2.9-7.8,7.1-9.2,8.4-9.4L21.8,39C21.8,39,10.3,40.8,11.6,51.4"/>
		</defs>
		<clipPath id="SVGID_11_">
			<use xlink:href="#SVGID_181_"  style="overflow:visible;"/>
		</clipPath>
		
			<linearGradient id="SVGID_12_" gradientUnits="userSpaceOnUse" x1="-982.6582" y1="1517.4766" x2="-982.013" y2="1517.4766" gradientTransform="matrix(16.0229 0 2.8248 -16.0229 11470.583 24359.5527)">
			<stop  offset="0" style="stop-color:#965224"/>
			<stop  offset="0.4993" style="stop-color:#EFB045"/>
			<stop  offset="1" style="stop-color:#F6E277"/>
		</linearGradient>
		<polygon class="st3" points="10.3,39 25.6,39 23.4,51.4 8.1,51.4 		"/>
	</g>
	<g>
		<defs>
			<path id="SVGID_184_" d="M44.8,42.7c-11.2,5.2-15.9-1.4-31,8.7c0,0-16.7,9.1-13.3,27.3C4,97.4,35.7,97.8,47,79.9
				c11.7-18.4-2.7-27-2.7-27s-1.7,0.7-3.5,0.8c-0.7,0-2.5,0-4.9,0.4c4.2,1.7,15,7.9,8.7,21c-6.7,13.9-19.9,14.3-24,14.2
				C16.6,89.3,1.8,84.2,5.8,69c4-15.2,20-18.5,25.8-19.5c5.7-1,9.9-0.3,17.6-5.2c7.5-4.8,8.8-14.5,8.9-16.1
				C57.9,29,55.8,37.5,44.8,42.7"/>
		</defs>
		<clipPath id="SVGID_14_">
			<use xlink:href="#SVGID_184_"  style="overflow:visible;"/>
		</clipPath>
		
			<linearGradient id="SVGID_15_" gradientUnits="userSpaceOnUse" x1="-1009.3725" y1="1439.9235" x2="-1008.7275" y2="1439.9235" gradientTransform="matrix(73.6348 -97.7042 -87.7592 -56.4095 200699.3594 -17305.0234)">
			<stop  offset="0" style="stop-color:#965224"/>
			<stop  offset="0.4993" style="stop-color:#EFB045"/>
			<stop  offset="1" style="stop-color:#F6E277"/>
		</linearGradient>
		<polygon class="st4" points="-38.3,75.1 17.2,1.4 94.1,50.9 38.6,124.6 		"/>
	</g>
	<g>
		<defs>
			<path id="SVGID_187_" d="M58.1,28.1c-0.2,1.6-1.4,11.3-8.9,16.1c-7.6,4.9-11.9,4.2-17.6,5.2c-5.7,1-21.7,4.2-25.8,19.5
				c-4,15.2,10.8,20.3,14.9,20.3c4.1,0.1,17.3-0.3,24-14.2C51,62,40.2,55.8,36,54.2c-3.7,0.5-8.9,1.9-13.7,5.1
				c0,0,11.6-5.1,17.8,4.1c6.3,9.2-4.3,23.4-17.7,22C9,83.9,10.3,73.8,11.6,69.6c1.3-4.2,6.2-10.7,14.6-13.8
				c8.4-3.1,14.1-3.2,15.4-3.3c1.2-0.1,6.5-0.6,10.9-5.7C57.1,41.7,59.5,34,58.1,28.1C58.1,28.1,58.1,28.1,58.1,28.1"/>
		</defs>
		<clipPath id="SVGID_17_">
			<use xlink:href="#SVGID_187_"  style="overflow:visible;"/>
		</clipPath>
		
			<linearGradient id="SVGID_18_" gradientUnits="userSpaceOnUse" x1="-1015.6265" y1="1460.4351" x2="-1014.9814" y2="1460.4351" gradientTransform="matrix(60.1598 10.9481 21.8946 -62.09 29134.8672 101852.6719)">
			<stop  offset="0" style="stop-color:#F6E277"/>
			<stop  offset="0.5007" style="stop-color:#EFB045"/>
			<stop  offset="1" style="stop-color:#965224"/>
		</linearGradient>
		<polygon class="st5" points="5.3,18.2 79.8,31.8 56,99.2 -18.5,85.7 		"/>
	</g>
	<g>
		<defs>
			<path id="SVGID_190_" d="M56.2,8c-3.6,1.2-6.2,3.2-7.1,4l1,0c0,0,3.1-2.4,5-2.4c3.5,0,5.9,2.1,5.8,4.3c-0.1,2.6,5.1,0.7,5.1,0.7
				c0.8-4.8-2.6-7.2-6.5-7.2C58.4,7.5,57.3,7.7,56.2,8"/>
		</defs>
		<clipPath id="SVGID_20_">
			<use xlink:href="#SVGID_190_"  style="overflow:visible;"/>
		</clipPath>
		
			<linearGradient id="SVGID_21_" gradientUnits="userSpaceOnUse" x1="-978.7682" y1="1374.8999" x2="-978.123" y2="1374.8999" gradientTransform="matrix(-6.2075 -15.4781 -17.0535 8.9363 17431.4297 -27418.3398)">
			<stop  offset="0" style="stop-color:#F6E277"/>
			<stop  offset="0.5007" style="stop-color:#EFB045"/>
			<stop  offset="1" style="stop-color:#965224"/>
		</linearGradient>
		<polygon class="st6" points="52.2,24.2 46.1,9 63.8,-0.2 69.9,14.9 		"/>
	</g>
	<g>
		<defs>
			<path id="SVGID_193_" d="M65.7,12l-5.2,2.6c0,1.7,1.1,1.7,1.1,1.7c1.2,0.2-0.5-1.1,0.9-1.7c1.9-0.9,7-0.4,3.5-4.3
				C66.1,10.9,66,11.4,65.7,12 M63.5,8c1.1,0.9,1.9,1.7,2.5,2.4C65.9,9.2,64.9,8.4,63.5,8C63.5,8,63.5,8,63.5,8 M54.9,6.9
				c-2.9,1.1-5.3,3.5-5.3,3.5L49.1,12c0.9-0.9,4.3-3.1,7.1-4c1.3-0.4,4.9-0.8,7.3,0c-1.3-1.1-3.3-1.7-5.3-1.7
				C57,6.4,55.9,6.5,54.9,6.9"/>
		</defs>
		<clipPath id="SVGID_23_">
			<use xlink:href="#SVGID_193_"  style="overflow:visible;"/>
		</clipPath>
		
			<linearGradient id="SVGID_24_" gradientUnits="userSpaceOnUse" x1="-1000.2309" y1="1482.9923" x2="-999.5858" y2="1482.9923" gradientTransform="matrix(28.1578 0 4.9642 -28.1578 20851.6641 41769.2695)">
			<stop  offset="0" style="stop-color:#F6E276"/>
			<stop  offset="0.5169" style="stop-color:#F6E074"/>
			<stop  offset="0.7031" style="stop-color:#F5D96D"/>
			<stop  offset="0.8359" style="stop-color:#F3CE62"/>
			<stop  offset="0.9424" style="stop-color:#F1BD51"/>
			<stop  offset="1" style="stop-color:#EFB044"/>
		</linearGradient>
		<polygon class="st7" points="49.1,6.4 71.3,6.4 69.5,16.6 47.3,16.6 		"/>
	</g>
	<g>
		<defs>
			<path id="SVGID_196_" d="M69.7,1c-0.5,0.9-0.6,1.9-0.5,3c0,0.6,0,1.1,0,1.7c0-0.2-0.1-0.5-0.1-0.7c-0.1-0.6-0.2-1.3-0.4-1.9
				c-0.3-1.3-1-1.7-2.3-1.5c-0.3,0.1-0.6,0-0.9,0c-1.3-0.3-2.6,0.4-3.1,1.6c-0.2,0.5-0.5,0.9-1.1,1.1c-1,0.4-1.5,1.7-1,2.7
				c0.2,0.5,0.5,1,0.8,1.4c0.5,0.7,1.2,0.9,2,1.1c0.5,0.1,0.9,0.2,1.4,0.4c0.4,0.1,0.9,0.2,1.3,0.4c-0.3-0.1-0.6-0.1-0.9-0.2
				c-1.2-0.2-2.5-0.2-3.6,0.4c-1.3,0.6-1.7,1.7-1.1,3c0.1,0.2,0.1,0.4,0,0.6c-0.4,1,0.1,2.3,1.2,2.7c0.2,0.1,0.3,0.2,0.3,0.4
				c0.1,1.2,1,2.3,2.2,2.6c0.1,0,0.3,0.2,0.3,0.4c0.9,1.6,3.1,2,4.4,0.8c0.3-0.3,0.5-0.6,0.7-0.9c0.3-0.6,0.5-1.1,0.8-1.7
				c0.2,1,0.3,1.9,0.5,2.8c0.2,0.6,0.5,1.3,0.8,1.9c0.5,0.9,1.2,1.1,2.2,0.9c0.6-0.1,1.1-0.5,1.5-1c0.5,0.7,1.2,0.8,2,0.6
				c0.6-0.2,1-0.6,1.3-1.1c0.1-0.3,0.4-0.6,0.6-0.8c0.8-1.1,0.6-2.7-0.5-3.4c-1.3-0.8-2.4-2-3.5-3c0,0,0-0.1,0-0.2
				c0.2,0.1,0.4,0.2,0.6,0.4c0.7,0.6,1.4,1.2,2,1.8c0.8,0.7,1.6,1,2.6,1.1c1.1,0.1,1.9-0.4,2.1-1.5c0-0.1,0.1-0.2,0.1-0.2
				c1.2-0.5,1.4-2,0.8-3.2c-0.2-0.3-0.4-1-0.4-1.4c0-1-0.7-2.2-2-2.2c-1.5,0-2.8,0.3-4.1,1c-0.2,0.1-0.3,0.2-0.6,0.4
				c0.5,0.1,0.9,0.3,1.3,0.4c0,0,0,0,0,0.1c-0.4,0-0.9,0-1.3,0c-0.1,0-0.2,0.1-0.3,0.1c0,0,0,0.1,0,0.1c0.7,0.3,1.4,0.6,2.1,0.9
				c0,0,0,0,0,0.1c-0.7-0.2-1.5-0.3-2.2-0.5c-0.3-0.1-0.7-0.1-1-0.1c-0.1,0-0.2,0.1-0.3,0.1c0.7,0.4,1.3,0.8,1.9,1.2c0,0,0,0,0,0
				c-1-0.2-2-0.4-3-0.5c0,0,0,0.1-0.1,0.1c0,0.1,0.1,0.2,0.1,0.3c0.5,0.8,0.9,1.5,1.1,2.4c0,0.2,0,0.3,0,0.5
				c-0.4-1.2-1.3-1.9-2.1-2.8c0.1,0.8,0.4,1.6,0.1,2.3c0-0.6-0.2-1.1-0.5-1.6c-0.3-0.5-0.6-0.9-1-1.4c-0.7,0.9-1.4,1.7-2.1,2.5
				c0,0,0,0-0.1-0.1c0.2-0.8,0.5-1.6,0.7-2.4c-1,0.1-1.8,0.3-2.6,0.8c0.7-0.8,1.6-1.1,2.5-1.5c-1-0.3-1.9-0.5-3-0.3
				c1.1-0.5,2.3-0.4,3.4-0.5c0-1.4-0.7-2.4-1.6-3.3c0,0,0,0,0.1-0.1c0.5,0.4,1,0.9,1.5,1.3c0,0,0,0,0.1,0c-0.4-1-0.7-2-1-2.9
				c0.9,1.1,1.6,2.4,2.2,3.8c0.4-0.8,0.5-1.6,0.6-2.5c0,0,0.1,0,0.1,0c0,0.7,0.1,1.3,0.1,2c0.8-0.9,0.9-2,0.9-3.1
				c0.2,0.5,0.2,1.9-0.1,2.8c0.5-0.4,0.7-0.8,0.9-1.3c0.2-0.5,0.4-1,0.6-1.4c0,1.2-0.1,2.3-0.8,3.3c0.3,0.1,0.6,0,0.8-0.2
				c1.3-0.9,2.6-1.9,3.6-3.1c0.7-0.9,0.8-1.9,0.5-3c-0.1-0.3-0.3-0.6-0.6-0.9c-0.5-0.6-1-1.1-1.5-1.6c-0.6-0.7-1.3-1.1-2.2-0.9
				c-0.8,0.1-1.5,0-2.2-0.2C71.4,0,71.2,0,71.1,0C70.4,0,70,0.3,69.7,1"/>
		</defs>
		<clipPath id="SVGID_26_">
			<use xlink:href="#SVGID_196_"  style="overflow:visible;"/>
		</clipPath>
		
			<radialGradient id="SVGID_27_" cx="-1003.034" cy="1516.3019" r="0.6451" gradientTransform="matrix(17.5655 6.2899 6.2899 -17.5655 8152.7241 32954.9141)" gradientUnits="userSpaceOnUse">
			<stop  offset="0" style="stop-color:#F6E277"/>
			<stop  offset="0.5559" style="stop-color:#EFB045"/>
			<stop  offset="0.6703" style="stop-color:#E9A942"/>
			<stop  offset="0.8367" style="stop-color:#D79639"/>
			<stop  offset="1" style="stop-color:#BF7C2D"/>
		</radialGradient>
		<polygon class="st8" points="62.3,-7.7 91.3,2.7 80.9,31.7 51.9,21.3 		"/>
	</g>
	<g>
		<defs>
			<path id="SVGID_199_" d="M77,8.8c-1.6,0.8-3.3,1.6-5,2c-0.2,0-0.4,0.1-0.7,0.1c-0.4,0-0.6,0.3-0.7,0.6c-0.1,0.3-0.1,0.6,0.2,0.9
				c0.3,0.3,0.5,0.4,0.9,0.2c2.2-0.7,4.1-1.9,5.9-3.2c1.2-0.9,2.3-1.8,3.3-2.9c0,0,0.1-0.1,0.1-0.1C79.7,7.4,78.4,8.1,77,8.8"/>
		</defs>
		<clipPath id="SVGID_29_">
			<use xlink:href="#SVGID_199_"  style="overflow:visible;"/>
		</clipPath>
		
			<linearGradient id="SVGID_30_" gradientUnits="userSpaceOnUse" x1="-952.7037" y1="1481.2019" x2="-952.0587" y2="1481.2019" gradientTransform="matrix(16.5664 -7.7901 -7.7901 -16.5664 27392.0723 17128.582)">
			<stop  offset="0" style="stop-color:#965224"/>
			<stop  offset="0.366" style="stop-color:#EFB045"/>
			<stop  offset="1" style="stop-color:#F6E277"/>
		</linearGradient>
		<polygon class="st9" points="68,7.6 79,2.4 83.3,11.6 72.3,16.8 		"/>
	</g>
	<g>
		<defs>
			<path id="SVGID_202_" d="M81.7,5.2c-0.1,0.3,0,0.6,0.3,0.7c0.3,0.1,0.6,0,0.7-0.3c0.1-0.3,0-0.6-0.3-0.7c-0.1,0-0.2-0.1-0.2-0.1
				C82,4.9,81.8,5,81.7,5.2"/>
		</defs>
		<clipPath id="SVGID_32_">
			<use xlink:href="#SVGID_202_"  style="overflow:visible;"/>
		</clipPath>
		
			<radialGradient id="SVGID_33_" cx="-594.7761" cy="3200.9812" r="0.6451" gradientTransform="matrix(0.7676 0.2749 0.2749 -0.7676 -341.2317 2625.9565)" gradientUnits="userSpaceOnUse">
			<stop  offset="0" style="stop-color:#F6E277"/>
			<stop  offset="0.5559" style="stop-color:#EFB045"/>
			<stop  offset="0.6465" style="stop-color:#E7A842"/>
			<stop  offset="0.7905" style="stop-color:#D29138"/>
			<stop  offset="0.9691" style="stop-color:#AF6B29"/>
			<stop  offset="1" style="stop-color:#A86426"/>
		</radialGradient>
		<polygon class="st10" points="81.7,4.5 83.1,5 82.6,6.4 81.2,5.8 		"/>
	</g>
	<g>
		<defs>
			<path id="SVGID_205_" d="M80.1,5.3c-0.1,0.3,0,0.6,0.3,0.7c0.3,0.1,0.6,0,0.7-0.3c0.1-0.3,0-0.6-0.3-0.7c-0.1,0-0.1,0-0.2,0
				C80.4,5,80.2,5.1,80.1,5.3"/>
		</defs>
		<clipPath id="SVGID_35_">
			<use xlink:href="#SVGID_205_"  style="overflow:visible;"/>
		</clipPath>
		
			<radialGradient id="SVGID_36_" cx="-591.231" cy="3208.5125" r="0.6452" gradientTransform="matrix(0.7644 0.2737 0.2737 -0.7644 -345.6327 2619.9111)" gradientUnits="userSpaceOnUse">
			<stop  offset="0" style="stop-color:#F6E277"/>
			<stop  offset="0.5559" style="stop-color:#EFB045"/>
			<stop  offset="0.6465" style="stop-color:#E7A842"/>
			<stop  offset="0.7905" style="stop-color:#D29138"/>
			<stop  offset="0.9691" style="stop-color:#AF6B29"/>
			<stop  offset="1" style="stop-color:#A86426"/>
		</radialGradient>
		<polygon class="st11" points="80.1,4.6 81.6,5.1 81.1,6.5 79.6,6 		"/>
	</g>
	<g>
		<defs>
			<path id="SVGID_208_" d="M81.3,6.7c-0.1,0.3,0,0.6,0.3,0.7c0.3,0.1,0.6,0,0.7-0.3c0.1-0.3,0-0.6-0.3-0.7c-0.1,0-0.1,0-0.2,0
				C81.6,6.4,81.4,6.5,81.3,6.7"/>
		</defs>
		<clipPath id="SVGID_38_">
			<use xlink:href="#SVGID_208_"  style="overflow:visible;"/>
		</clipPath>
		
			<radialGradient id="SVGID_39_" cx="-594.7974" cy="3196.3726" r="0.6452" gradientTransform="matrix(0.7703 0.2758 0.2758 -0.7703 -341.6075 2633.0847)" gradientUnits="userSpaceOnUse">
			<stop  offset="0" style="stop-color:#F6E277"/>
			<stop  offset="0.5559" style="stop-color:#EFB045"/>
			<stop  offset="0.6465" style="stop-color:#E7A842"/>
			<stop  offset="0.7905" style="stop-color:#D29138"/>
			<stop  offset="0.9691" style="stop-color:#AF6B29"/>
			<stop  offset="1" style="stop-color:#A86426"/>
		</radialGradient>
		<polygon class="st12" points="81.3,6 82.7,6.5 82.2,7.9 80.8,7.4 		"/>
	</g>
	<g>
		<defs>
			<path id="SVGID_211_" d="M78.9,5.9c-0.1,0.3,0,0.6,0.3,0.7c0.3,0.1,0.6,0,0.7-0.3c0.1-0.3,0-0.6-0.3-0.7c-0.1,0-0.1,0-0.2,0
				C79.2,5.6,79,5.7,78.9,5.9"/>
		</defs>
		<clipPath id="SVGID_41_">
			<use xlink:href="#SVGID_211_"  style="overflow:visible;"/>
		</clipPath>
		
			<radialGradient id="SVGID_42_" cx="-591.4377" cy="3203.2537" r="0.6452" gradientTransform="matrix(0.767 0.2746 0.2746 -0.767 -346.6149 2625.4199)" gradientUnits="userSpaceOnUse">
			<stop  offset="0" style="stop-color:#F6E277"/>
			<stop  offset="0.5559" style="stop-color:#EFB045"/>
			<stop  offset="0.6465" style="stop-color:#E7A842"/>
			<stop  offset="0.7905" style="stop-color:#D29138"/>
			<stop  offset="0.9691" style="stop-color:#AF6B29"/>
			<stop  offset="1" style="stop-color:#A86426"/>
		</radialGradient>
		<polygon class="st13" points="78.9,5.2 80.3,5.7 79.8,7.1 78.4,6.6 		"/>
	</g>
	<g>
		<defs>
			<path id="SVGID_214_" d="M80.4,7.7c-0.1,0.3,0,0.6,0.3,0.7c0.3,0.1,0.6,0,0.7-0.3c0.1-0.3,0-0.6-0.3-0.7c-0.1,0-0.1,0-0.2,0
				C80.6,7.4,80.4,7.5,80.4,7.7"/>
		</defs>
		<clipPath id="SVGID_44_">
			<use xlink:href="#SVGID_214_"  style="overflow:visible;"/>
		</clipPath>
		
			<radialGradient id="SVGID_45_" cx="-592.5339" cy="3211.2908" r="0.6451" gradientTransform="matrix(0.7642 0.2737 0.2737 -0.7642 -345.2686 2624.1384)" gradientUnits="userSpaceOnUse">
			<stop  offset="0" style="stop-color:#F6E277"/>
			<stop  offset="0.5559" style="stop-color:#EFB045"/>
			<stop  offset="0.6465" style="stop-color:#E7A842"/>
			<stop  offset="0.7905" style="stop-color:#D29138"/>
			<stop  offset="0.9691" style="stop-color:#AF6B29"/>
			<stop  offset="1" style="stop-color:#A86426"/>
		</radialGradient>
		<polygon class="st14" points="80.4,7 81.8,7.5 81.3,8.9 79.9,8.4 		"/>
	</g>
</g>
<g>
	<path class="st74" d="M87,75.7c0,0-0.1-0.1-0.3-0.6l-0.1-0.5h-1.9v6.4h1.9l0.1-0.5c0.1-0.5,0.2-0.6,0.3-0.6c0,0,0.2-0.1,0.8-0.1
		h5.8v3.8c-1.1,0.9-2.4,1.5-3.9,2c-1.6,0.5-3.4,0.8-5.2,0.8c-3.4,0-6.3-0.9-8.4-2.6c-2.4-1.9-3.5-4.3-3.5-7.5c0-3.3,1.2-5.8,3.7-7.7
		c2.2-1.7,4.9-2.5,8-2.5c2.8,0,5.5,0.7,8.1,2.1c1.2,0.6,1.6,1,1.7,1.1c0,0.1-0.1,0.2-0.2,0.4l-0.4,0.6l1.7,1.1l3.9-5.9l-1.7-1.1
		l-0.4,0.5c-0.2,0.3-0.4,0.4-0.5,0.5c-0.1,0-0.3-0.1-0.7-0.3c-2-1.1-3.9-1.9-5.7-2.3c-1.8-0.5-3.7-0.7-5.8-0.7
		c-2.4,0-4.6,0.4-6.7,1.1c-2.9,1-5.3,2.6-7.1,4.8c-1.9,2.4-2.9,5.2-2.9,8.3c0,2.2,0.5,4.2,1.5,6.2c0.9,1.7,2,3.2,3.5,4.4
		c2.9,2.5,6.8,3.7,11.6,3.7c3.8,0,7.3-0.8,10.3-2.4c1.4-0.7,2.9-1.8,4.4-3.1l0.3-0.2v-1.4l-0.5-0.1c-0.5-0.1-0.6-0.3-0.6-0.3
		c0,0-0.1-0.1-0.1-0.7v-3.4c0-0.5,0.1-0.7,0.1-0.7c0,0,0.1-0.1,0.6-0.3l0.5-0.1v-1.9H87.8C87.2,75.8,87,75.7,87,75.7"/>
	<path class="st74" d="M129.4,69.7c-2.6-2.1-6-3.1-10.1-3.1h0c-2.3,0-4.4,0.4-6.2,1c-2.6,0.9-4.6,2.4-6,4.4c-1.4,1.9-2,4.1-2,6.5
		c0,3.5,1.4,6.5,4.2,8.7c2.6,2.1,6,3.1,10.1,3.1c5.5,0,9.6-1.8,12.2-5.4c1.4-1.9,2.1-4,2.1-6.3C133.5,75,132.1,72,129.4,69.7
		 M119.3,86.7c-3.1,0-5.6-0.9-7.4-2.7c-1.6-1.5-2.4-3.3-2.4-5.6s0.8-4,2.4-5.6c1.8-1.8,4.3-2.7,7.4-2.7c3.1,0,5.6,0.9,7.5,2.7
		c1.6,1.5,2.4,3.3,2.4,5.7c0,2.1-0.8,3.9-2.4,5.4C124.9,85.8,122.4,86.7,119.3,86.7"/>
	<path class="st74" d="M159.1,85.7c-0.1,0.5-0.3,0.6-0.3,0.6c0,0-0.2,0.1-0.8,0.1h-13V69.9c0-0.5,0.1-0.7,0.1-0.7
		c0,0,0.1-0.1,0.6-0.3l0.5-0.1v-1.8h-6.9v1.8L140,69c0.5,0.1,0.6,0.3,0.6,0.3c0,0,0.1,0.1,0.1,0.7V87c0,0.5-0.1,0.7-0.1,0.7
		c0,0-0.1,0.1-0.6,0.3l-0.5,0.1v1.8H158c0.6,0,0.8,0.1,0.8,0.1c0,0,0.1,0.1,0.3,0.6l0.1,0.5h1.8v-6h-1.8L159.1,85.7z"/>
	<path class="st74" d="M184.7,68.1c-1.6-0.7-3.9-1.1-7.1-1.1h-12.1v1.8l0.5,0.1c0.5,0.1,0.6,0.3,0.6,0.3c0,0,0.1,0.2,0.1,0.7V87
		c0,0.5-0.1,0.7-0.1,0.7c0,0-0.1,0.1-0.6,0.3l-0.5,0.1v1.8h12.1c3,0,5.3-0.4,7-1.1c1.7-0.7,3.2-2,4.3-3.8c1.3-2,1.9-4.2,1.9-6.6
		c0-2-0.5-4-1.4-5.8C188.2,70.6,186.7,69.1,184.7,68.1 M171.1,70.6h6.3c1.9,0,3.4,0.2,4.4,0.5c1,0.3,1.9,0.9,2.6,1.6
		c1.3,1.4,1.9,3.4,1.9,5.8c0,1.4-0.2,2.6-0.7,3.8c-0.6,1.5-1.5,2.5-2.7,3.2c-1.1,0.6-3,0.9-5.5,0.9h-6.3V70.6z"/>
	<path class="st74" d="M216.5,85.7c-0.1,0.5-0.2,0.6-0.2,0.6c0,0-0.2,0.1-0.8,0.1h-13.2v-6.5h8.1c0.6,0,0.7,0.1,0.8,0.1
		c0,0,0.1,0.1,0.3,0.6l0.1,0.5h1.8v-6h-1.8l-0.1,0.5c-0.1,0.5-0.3,0.6-0.3,0.6c0,0-0.2,0.1-0.8,0.1h-8.1v-5.8h13.1
		c0.6,0,0.8,0.1,0.8,0.1c0,0,0.1,0.1,0.3,0.6l0.1,0.5h1.8v-6h-1.8l-0.1,0.5c-0.1,0.5-0.3,0.6-0.3,0.6c0,0-0.2,0.1-0.8,0.1h-18.6v1.8
		l0.5,0.1c0.5,0.1,0.6,0.3,0.6,0.3c0,0,0.1,0.1,0.1,0.7V87c0,0.5-0.1,0.7-0.1,0.7c0,0-0.1,0.1-0.6,0.3l-0.5,0.1v1.8h18.8
		c0.6,0,0.8,0.1,0.8,0.1c0,0,0.1,0.1,0.2,0.6l0.1,0.5h1.8v-6h-1.8L216.5,85.7z"/>
	<path class="st74" d="M243.3,68.8l0.5,0.1c0.5,0.1,0.6,0.3,0.6,0.3c0,0,0.1,0.1,0.1,0.7V83l-12-12.8c-0.5-0.6-0.6-0.8-0.6-0.9
		c0-0.1,0.2-0.2,0.5-0.3l0.5-0.2v-1.8h-8.7v1.8l0.5,0.1c0.5,0.1,0.6,0.3,0.6,0.3c0,0,0.1,0.1,0.1,0.7V87c0,0.5-0.1,0.7-0.1,0.7
		c0,0-0.1,0.1-0.6,0.3l-0.5,0.1v1.8h6.4v-1.8l-0.5-0.1c-0.5-0.1-0.6-0.3-0.6-0.3c0,0-0.1-0.1-0.1-0.7V72.9l13.3,14
		c0.5,0.5,0.6,0.8,0.7,0.9c-0.1,0-0.2,0.1-0.4,0.2l-0.5,0.1v1.8h7.3v-1.8l-0.5-0.1c-0.5-0.1-0.6-0.3-0.6-0.3c0,0-0.1-0.1-0.1-0.7
		V69.9c0-0.5,0.1-0.7,0.1-0.7c0,0,0.1-0.1,0.6-0.3l0.5-0.1v-1.8h-6.4V68.8z"/>
	<path class="st74" d="M293.8,75.2c-0.9-0.5-2.1-0.8-3.5-1c-1.3-0.2-3.6-0.3-6.7-0.4c-2.2-0.1-3.8-0.2-4.7-0.3
		c-0.9-0.1-1.7-0.3-2.4-0.6c-0.5-0.2-1-0.6-1.3-1c-0.3-0.4-0.5-0.9-0.5-1.4c0-0.6,0.2-1.2,0.6-1.7c0.4-0.6,1.1-1.1,1.8-1.5
		c1.7-0.8,3.8-1.2,6.2-1.2c2.9,0,5.7,0.6,8.3,1.7c0.7,0.3,1,0.5,1,0.6c0,0.1-0.1,0.3-0.3,0.8l-0.2,0.6l1.7,0.9l3.6-6.2l-1.8-0.8
		l-0.4,0.4c-0.2,0.3-0.4,0.4-0.5,0.5c-0.1,0-0.2-0.1-0.5-0.2c-2-0.9-3.8-1.5-5.5-1.8c-1.6-0.4-3.4-0.5-5.3-0.5
		c-2.3,0-4.5,0.3-6.4,0.9c-2,0.6-3.6,1.4-4.7,2.4c-1.6,1.5-2.4,3.2-2.4,5.3c0,1.2,0.3,2.3,0.9,3.4c0.6,1,1.5,1.8,2.5,2.4
		c1.1,0.6,2.3,1,3.7,1.3c1.3,0.2,3.2,0.4,5.5,0.5c3.2,0.1,5.2,0.2,5.8,0.3c0.6,0.1,1.2,0.2,1.8,0.4c2.2,0.7,2.5,2,2.5,2.9
		c0,1.1-0.5,2-1.5,2.8c-1.6,1.3-4.1,2-7.3,2c-1.6,0-3.1-0.2-4.5-0.5c-1.4-0.3-2.8-0.9-4.3-1.6c-1.5-0.8-2-1.2-2.1-1.3
		c0-0.1,0.1-0.3,0.3-0.6l0.3-0.6l-1.8-1l-3.8,6l1.7,1l0.4-0.4c0.2-0.3,0.4-0.4,0.5-0.4c0.1,0,0.4,0.1,0.8,0.3
		c2.4,1.2,4.6,2.1,6.3,2.5c1.8,0.5,3.9,0.7,6.2,0.7c4.1,0,7.5-0.9,9.9-2.7c2.2-1.6,3.4-3.8,3.4-6.4
		C297.6,78.6,296.4,76.5,293.8,75.2"/>
	<path class="st74" d="M327.2,63.9c-1-0.6-2-1-3.3-1.2c-1.2-0.2-2.8-0.3-4.8-0.3h-15.1v1.9l0.5,0.1c0.5,0.1,0.6,0.3,0.7,0.3
		c0.1,0.1,0.1,0.2,0.1,0.4v22.1c0,0.2,0,0.4-0.1,0.4c0,0-0.2,0.2-0.7,0.3l-0.5,0.1v1.9h7.1V88l-0.5-0.1c-0.5-0.1-0.6-0.3-0.7-0.3
		c-0.1-0.1-0.1-0.2-0.1-0.4v-9h9.3c2.6,0,4.6-0.2,6-0.6c1.5-0.4,2.7-1.2,3.7-2.3c1.3-1.4,1.9-3.1,1.9-5.1c0-1.4-0.4-2.7-1-3.9
		C329,65.3,328.2,64.5,327.2,63.9 M319.4,74.2h-9.6v-8h9.6c1.5,0,2.6,0.1,3.3,0.2c0.6,0.1,1.2,0.3,1.7,0.6c1.1,0.6,1.7,1.7,1.7,3.2
		c0,1.5-0.5,2.6-1.7,3.2c-0.5,0.3-1.1,0.5-1.8,0.6C321.9,74.2,320.8,74.2,319.4,74.2"/>
	<path class="st74" d="M362.4,87.9c-0.9-0.2-1.1-0.4-1.1-0.4c-0.1-0.1-0.3-0.5-1.3-2.4l-9.6-19.9c-0.1-0.3-0.2-0.5-0.3-0.6
		c0.1,0,0.2-0.1,0.4-0.2l0.5-0.2v-1.8H343v1.9l0.5,0.1c0.2,0.1,0.3,0.1,0.4,0.1c0,0.1-0.1,0.3-0.3,0.6l-10,20.6
		c-0.6,1.2-0.9,1.6-1,1.7c-0.2,0.2-0.5,0.3-0.9,0.4l-0.6,0.1v1.9h7.5V88l-0.6-0.1c-0.3-0.1-0.5-0.1-0.6-0.2c0-0.1,0.1-0.3,0.2-0.6
		l2.2-4.5h13.8l2.1,4.3c0.3,0.6,0.4,0.8,0.4,0.8h0c0,0-0.2,0.1-0.6,0.2l-0.6,0.1v1.9h7.9V88L362.4,87.9z M351.9,78.7h-10.1l5-10.5
		L351.9,78.7z"/>
</g>
</svg>
