<svg id="圖層_1" data-name="圖層 1" xmlns="http://www.w3.org/2000/svg" xmlns:xlink="http://www.w3.org/1999/xlink" viewBox="0 0 43.43 37.34"><defs><style>.cls-1{fill:none;}.cls-2{clip-path:url(#clip-path);}.cls-3{fill:url(#linear-gradient);}.cls-4{clip-path:url(#clip-path-2);}.cls-5{fill:url(#linear-gradient-2);}.cls-6{clip-path:url(#clip-path-3);}.cls-7{fill:url(#radial-gradient);}.cls-8{clip-path:url(#clip-path-4);}.cls-9{fill:url(#linear-gradient-3);}.cls-10{clip-path:url(#clip-path-5);}.cls-11{fill:url(#radial-gradient-2);}.cls-12{clip-path:url(#clip-path-6);}.cls-13{fill:url(#radial-gradient-3);}.cls-14{clip-path:url(#clip-path-7);}.cls-15{fill:url(#radial-gradient-4);}.cls-16{clip-path:url(#clip-path-8);}.cls-17{fill:url(#radial-gradient-5);}.cls-18{clip-path:url(#clip-path-9);}.cls-19{fill:url(#radial-gradient-6);}.cls-20{clip-path:url(#clip-path-10);}.cls-21{fill:url(#linear-gradient-4);}</style><clipPath id="clip-path"><path class="cls-1" d="M32.72,14.74a19.92,19.92,0,0,1,7.06,4l-1,.05s-3.13-2.42-5-2.41c-3.51,0-5.88,2.15-5.8,4.26.11,2.56-5.09.68-5.09.68-.84-4.82,2.57-7.16,6.5-7.16a10.63,10.63,0,0,1,3.35.55"/></clipPath><linearGradient id="linear-gradient" x1="-1610.35" y1="1521.63" x2="-1609.7" y2="1521.63" gradientTransform="matrix(6.21, -15.48, 17.05, 8.94, -15924.19, -38498.43)" gradientUnits="userSpaceOnUse"><stop offset="0" stop-color="#f6e277"/><stop offset="0.5" stop-color="#efb045"/><stop offset="1" stop-color="#965224"/></linearGradient><clipPath id="clip-path-2"><path class="cls-1" d="M23.21,18.77a3.45,3.45,0,0,1-.32-1.68c-3.46,3.91,1.62,3.46,3.54,4.31,1.35.6-.34,1.9.89,1.67,0,0,1.11,0,1.09-1.74l-5.2-2.56m2.19-4h0c-1.37.41-2.39,1.14-2.52,2.35a23.53,23.53,0,0,1,2.51-2.35m8.66-1.08a9.19,9.19,0,0,0-3.31-.58,8.55,8.55,0,0,0-5.34,1.66,14.86,14.86,0,0,1,7.31,0,25.2,25.2,0,0,1,7.06,4l-.38-1.59a18.62,18.62,0,0,0-5.34-3.52"/></clipPath><linearGradient id="linear-gradient-2" x1="-1605.15" y1="1667.29" x2="-1604.51" y2="1667.29" gradientTransform="matrix(-28.16, 0, -4.96, -28.16, -36881.17, 46965.41)" gradientUnits="userSpaceOnUse"><stop offset="0" stop-color="#f6e276"/><stop offset="0.52" stop-color="#f6e074"/><stop offset="0.7" stop-color="#f5d96d"/><stop offset="0.84" stop-color="#f3ce62"/><stop offset="0.94" stop-color="#f1bd51"/><stop offset="1" stop-color="#efb044"/></linearGradient><clipPath id="clip-path-3"><path class="cls-1" d="M19.25,7.72a6.18,6.18,0,0,1,.53,3c0,.56-.05,1.12,0,1.7l.15-.68c.12-.65.22-1.3.38-1.94A1.73,1.73,0,0,1,22.6,8.29a2.48,2.48,0,0,0,.9,0,2.78,2.78,0,0,1,3.12,1.61A1.74,1.74,0,0,0,27.69,11a2.05,2.05,0,0,1,1,2.73,7.53,7.53,0,0,1-.85,1.38,3.53,3.53,0,0,1-2,1.14l-1.37.37A10.47,10.47,0,0,0,23.2,17l.89-.16a5.82,5.82,0,0,1,3.61.37,2.19,2.19,0,0,1,1.15,3,.72.72,0,0,0,0,.61,2,2,0,0,1-1.15,2.66.42.42,0,0,0-.32.44,3.09,3.09,0,0,1-2.21,2.62.71.71,0,0,0-.33.35,2.84,2.84,0,0,1-4.44.76,3.2,3.2,0,0,1-.67-1c-.29-.55-.53-1.13-.8-1.73-.17,1-.27,1.89-.5,2.78a9.53,9.53,0,0,1-.77,1.88,1.69,1.69,0,0,1-2.16.88,2.91,2.91,0,0,1-1.54-1,1.77,1.77,0,0,1-2,.55A1.92,1.92,0,0,1,10.69,29a5.37,5.37,0,0,0-.6-.84,2.47,2.47,0,0,1,.52-3.42,22.82,22.82,0,0,0,3.53-3s0-.06,0-.16c-.19.13-.39.24-.56.38l-2,1.79a4.6,4.6,0,0,1-2.65,1.14,1.77,1.77,0,0,1-2.08-1.55.38.38,0,0,0-.13-.21A2.15,2.15,0,0,1,6,20a3.09,3.09,0,0,0,.36-1.39,2.09,2.09,0,0,1,2-2.18,9.11,9.11,0,0,1,4.13,1,6.63,6.63,0,0,1,.56.37l-1.31.36v.06c.44,0,.87,0,1.31,0a.88.88,0,0,1,.3.1v.14l-2.09.94s0,0,0,.05c.74-.16,1.47-.33,2.2-.46a7,7,0,0,1,1-.09,1.21,1.21,0,0,1,.33.13l-1.94,1.24a.05.05,0,0,1,0,0l3-.55.06.09c-.05.09-.09.2-.14.29a7.89,7.89,0,0,0-1.13,2.38,1.93,1.93,0,0,0,0,.48,7,7,0,0,1,2.13-2.76,4.46,4.46,0,0,0,0,2.35,3.17,3.17,0,0,1,.5-1.59c.29-.48.62-.93,1-1.42l2.09,2.45.07-.05-.74-2.41a5.31,5.31,0,0,1,2.62.77,5.78,5.78,0,0,0-2.53-1.5,7.62,7.62,0,0,1,3-.33,10.17,10.17,0,0,0-3.44-.49,4.85,4.85,0,0,1,1.62-3.31l-.07-.06-1.47,1.33-.06,0,1-2.9a12.1,12.1,0,0,0-2.17,3.84,9.82,9.82,0,0,1-.64-2.46h-.08c0,.65-.06,1.3-.09,2a4.83,4.83,0,0,1-.91-3.09A5.31,5.31,0,0,0,16.5,16a3.1,3.1,0,0,1-.91-1.25c-.21-.46-.37-.95-.58-1.43a5.9,5.9,0,0,0,.79,3.33.88.88,0,0,1-.84-.15,16.25,16.25,0,0,1-3.57-3.1,3.22,3.22,0,0,1-.54-3,2.48,2.48,0,0,1,.57-.86c.49-.55,1-1.05,1.5-1.63A2.13,2.13,0,0,1,15.12,7a4.75,4.75,0,0,0,2.21-.22,2,2,0,0,1,.52-.08,1.53,1.53,0,0,1,1.4,1"/></clipPath><radialGradient id="radial-gradient" cx="-1601.3" cy="1713.66" r="0.65" gradientTransform="translate(-29858.89 31991) rotate(-180) scale(18.66)" gradientUnits="userSpaceOnUse"><stop offset="0" stop-color="#f6e277"/><stop offset="0.56" stop-color="#efb045"/><stop offset="0.67" stop-color="#e9a942"/><stop offset="0.84" stop-color="#d79639"/><stop offset="1" stop-color="#bf7c2d"/></radialGradient><clipPath id="clip-path-4"><path class="cls-1" d="M11.89,15.56a20.64,20.64,0,0,0,5.05,2,2.92,2.92,0,0,0,.66.09.82.82,0,0,1,.75.63.79.79,0,0,1-.16.91.83.83,0,0,1-.92.24,20.3,20.3,0,0,1-5.88-3.22,22.49,22.49,0,0,1-3.3-2.87L8,13.18a27.18,27.18,0,0,0,3.89,2.38"/></clipPath><linearGradient id="linear-gradient-3" x1="-1544.48" y1="1654.38" x2="-1543.84" y2="1654.38" gradientTransform="translate(-30273.37 -28251.59) rotate(-90) scale(18.31)" gradientUnits="userSpaceOnUse"><stop offset="0" stop-color="#965224"/><stop offset="0.37" stop-color="#efb045"/><stop offset="1" stop-color="#f6e277"/></linearGradient><clipPath id="clip-path-5"><path class="cls-1" d="M7.23,11.88a.53.53,0,0,1-.27.7.52.52,0,1,1-.43-.95.5.5,0,0,1,.23-.05.51.51,0,0,1,.47.3"/></clipPath><radialGradient id="radial-gradient-2" cx="-619.39" cy="3817.42" r="0.65" gradientTransform="translate(-498.52 3124.56) rotate(-180) scale(0.82)" gradientUnits="userSpaceOnUse"><stop offset="0" stop-color="#f6e277"/><stop offset="0.56" stop-color="#efb045"/><stop offset="0.65" stop-color="#e7a842"/><stop offset="0.79" stop-color="#d29138"/><stop offset="0.97" stop-color="#af6b29"/><stop offset="1" stop-color="#a86426"/></radialGradient><clipPath id="clip-path-6"><path class="cls-1" d="M8.79,12a.51.51,0,0,1-.27.69.53.53,0,0,1-.69-.28.52.52,0,0,1,.28-.69.59.59,0,0,1,.22-.05.5.5,0,0,1,.46.33"/></clipPath><radialGradient id="radial-gradient-3" cx="-613.29" cy="3826.76" r="0.65" gradientTransform="matrix(-0.81, 0, 0, -0.81, -489.24, 3119.33)" xlink:href="#radial-gradient-2"/><clipPath id="clip-path-7"><path class="cls-1" d="M7.62,13.4a.54.54,0,0,1-.29.69.5.5,0,0,1-.68-.29.53.53,0,0,1,.27-.69.65.65,0,0,1,.19,0,.56.56,0,0,1,.51.33"/></clipPath><radialGradient id="radial-gradient-4" cx="-621.46" cy="3811.25" r="0.65" gradientTransform="matrix(-0.82, 0, 0, -0.82, -500.54, 3132.03)" xlink:href="#radial-gradient-2"/><clipPath id="clip-path-8"><path class="cls-1" d="M10,12.63a.54.54,0,0,1-.28.7A.51.51,0,0,1,9.07,13a.51.51,0,0,1,.27-.69.52.52,0,0,1,.21,0,.53.53,0,0,1,.48.32"/></clipPath><radialGradient id="radial-gradient-5" cx="-615.52" cy="3820" r="0.65" gradientTransform="translate(-491.92 3124.89) rotate(-180) scale(0.81)" xlink:href="#radial-gradient-2"/><clipPath id="clip-path-9"><path class="cls-1" d="M8.55,14.41a.53.53,0,0,1-.29.69.51.51,0,0,1-.68-.28.5.5,0,0,1,.28-.68.54.54,0,0,1,.21-.05.51.51,0,0,1,.48.32"/></clipPath><radialGradient id="radial-gradient-6" cx="-614.49" cy="3829.69" r="0.65" gradientTransform="translate(-491.29 3123.22) rotate(-179.99) scale(0.81)" xlink:href="#radial-gradient-2"/><clipPath id="clip-path-10"><path class="cls-1" d="M110.32,76.45c-11.2,5.24-15.94-1.38-31,8.75,0,0-16.68,9.06-13.27,27.27,3.5,18.69,35.2,19.15,46.59,1.27,11.72-18.4-2.69-27-2.69-27a10.61,10.61,0,0,1-3.46.78,37.35,37.35,0,0,0-4.91.39c4.18,1.68,15,7.86,8.73,21-6.66,13.92-19.88,14.25-24,14.19S67.37,118,71.38,102.77s20-18.45,25.75-19.47,10-.32,17.6-5.25c7.5-4.84,8.76-14.46,8.92-16.11-.19.89-2.33,9.37-13.33,14.51"/></clipPath><linearGradient id="linear-gradient-4" x1="-1629.8" y1="1613.67" x2="-1629.15" y2="1613.67" gradientTransform="matrix(73.63, -97.7, -87.76, -56.41, 261697.78, -68088.62)" gradientUnits="userSpaceOnUse"><stop offset="0" stop-color="#965224"/><stop offset="0.5" stop-color="#efb045"/><stop offset="1" stop-color="#f6e277"/></linearGradient></defs><g class="cls-2"><polygon class="cls-3" points="36.7 30.92 42.78 15.76 25.11 6.5 19.03 21.66 36.7 30.92"/></g><g class="cls-4"><polygon class="cls-5" points="39.78 13.07 17.63 13.07 19.43 23.3 41.58 23.3 39.78 13.07"/></g><g class="cls-6"><rect class="cls-7" x="1.92" y="3.36" width="30.81" height="30.75" transform="translate(-5.3 6.94) rotate(-19.7)"/></g><g class="cls-8"><rect class="cls-9" x="8.15" y="10.25" width="10.18" height="12.17" transform="translate(-7.18 21.37) rotate(-64.81)"/></g><g class="cls-10"><rect class="cls-11" x="5.99" y="11.41" width="1.52" height="1.46" transform="translate(-3.7 2.99) rotate(-19.71)"/></g><g class="cls-12"><rect class="cls-13" x="7.56" y="11.53" width="1.51" height="1.46" transform="translate(-3.64 3.52) rotate(-19.69)"/></g><g class="cls-14"><rect class="cls-15" x="6.38" y="12.91" width="1.51" height="1.47" transform="translate(-4.18 3.2) rotate(-19.69)"/></g><g class="cls-16"><rect class="cls-17" x="8.79" y="12.14" width="1.51" height="1.47" transform="translate(-3.78 3.97) rotate(-19.7)"/></g><g class="cls-18"><rect class="cls-19" x="7.31" y="13.92" width="1.51" height="1.46" transform="translate(-4.47 3.58) rotate(-19.72)"/></g><g class="cls-20"><polygon class="cls-21" points="27.24 108.88 82.76 35.22 159.72 84.68 104.2 158.35 27.24 108.88"/></g></svg>